<?xml version="1.0" encoding="utf-8"?>
<!-- Generator: Adobe Illustrator 22.1.0, SVG Export Plug-In . SVG Version: 6.00 Build 0)  -->
<svg version="1.1" id="Layer_1" xmlns="http://www.w3.org/2000/svg" xmlns:xlink="http://www.w3.org/1999/xlink" x="0px" y="0px"
	 viewBox="0 0 34 34" style="enable-background:new 0 0 34 34;" xml:space="preserve">
<style type="text/css">
	.st0{fill:#202020;}
</style>
<path id="Forma_1_2_" d="M31.7,27.8c-3.6-1.6-3.7-8.6-3.7-8.8v-4.7c0-4.4-2.6-8.4-6.7-10.1C21.2,1.9,19.3,0,17,0s-4.2,1.9-4.2,4.2
	c-4,1.7-6.7,5.7-6.7,10.1V19c0,0.2-0.1,7.2-3.7,8.8c-0.5,0.2-0.7,0.8-0.5,1.3c0.2,0.3,0.5,0.6,0.9,0.6h9.1c0.2,1,0.7,2,1.4,2.8
	c1.9,2,5.1,2.1,7.1,0.2c0.1-0.1,0.2-0.2,0.2-0.2c0.7-0.8,1.2-1.7,1.4-2.8h9.1c0.5,0,1-0.4,0.9-1C32.2,28.3,32,28,31.7,27.8z
	 M26.9,24.4c0.4,1.2,0.9,2.3,1.7,3.3H5.4c0.7-1,1.3-2.1,1.7-3.3C7.1,24.4,26.9,24.4,26.9,24.4z M17,1.9c1,0,1.9,0.7,2.2,1.7
	c-1.5-0.3-3-0.3-4.4,0C15.1,2.6,16,1.9,17,1.9z M8,19v-4.7c0-5,4-9,9-9s9,4,9,9c0,0,0,0,0,0V19c0,1.2,0.2,2.4,0.4,3.5H7.6
	C7.9,21.4,8,20.2,8,19z M17,32.1c-1.5,0-2.8-1-3.1-2.5h6.3C19.8,31,18.5,32,17,32.1z"/>
</svg>
