<svg xmlns="http://www.w3.org/2000/svg" xmlns:xlink="http://www.w3.org/1999/xlink" version="1.1" x="0px" y="0px" viewBox="0 0 100 100" enable-background="new 0 0 100 100" xml:space="preserve"><g><path fill="#000000" d="M49.888,8.92c-22.482,0-40.772,18.291-40.772,40.774c0,22.482,18.291,40.773,40.772,40.773   c22.483,0,40.774-18.291,40.774-40.773C90.662,27.211,72.371,8.92,49.888,8.92z M51.517,83.914V79.27   c0-0.898-0.729-1.627-1.629-1.627c-0.899,0-1.628,0.729-1.628,1.627v4.645c-17.597-0.828-31.763-14.992-32.59-32.592h4.644   c0.899,0,1.628-0.729,1.628-1.628s-0.729-1.628-1.628-1.628h-4.644c0.828-17.598,14.993-31.763,32.59-32.591v4.644   c0,0.899,0.729,1.628,1.628,1.628c0.899,0,1.629-0.729,1.629-1.628v-4.644c17.599,0.828,31.764,14.993,32.592,32.591h-4.645   c-0.898,0-1.628,0.729-1.628,1.628s0.729,1.628,1.628,1.628h4.645C83.28,68.922,69.115,83.086,51.517,83.914z"></path><path fill="#000000" d="M53.145,48.345V33.951c0-1.798-1.458-3.256-3.257-3.256c-1.798,0-3.256,1.458-3.256,3.256v15.744   c0,0.002,0.001,0.004,0.001,0.006c0,0.211,0.022,0.422,0.063,0.631c0.02,0.097,0.055,0.188,0.083,0.281   c0.032,0.11,0.058,0.221,0.102,0.327c0.045,0.109,0.107,0.208,0.164,0.312c0.045,0.084,0.082,0.17,0.135,0.25   c0.119,0.178,0.254,0.345,0.405,0.496l18.483,18.481c0.636,0.636,1.469,0.954,2.303,0.954c0.833,0,1.667-0.318,2.303-0.954   c1.271-1.271,1.271-3.333,0-4.605L53.145,48.345z"></path></g></svg>