<?xml version="1.0" encoding="utf-8"?>
<!-- Generator: Adobe Illustrator 22.1.0, SVG Export Plug-In . SVG Version: 6.00 Build 0)  -->
<svg version="1.1" id="Layer_1" xmlns="http://www.w3.org/2000/svg" xmlns:xlink="http://www.w3.org/1999/xlink" x="0px" y="0px"
	 viewBox="0 0 34 34" style="enable-background:new 0 0 34 34;" xml:space="preserve">
<style type="text/css">
	.st0{fill:#202020;}
	.st1{fill:#111111;}
	.st2{fill:none;stroke:#202020;stroke-width:4;stroke-linejoin:round;stroke-miterlimit:10;}
	.st3{fill:none;stroke:#202020;stroke-width:4.2667;stroke-linecap:round;stroke-linejoin:round;stroke-miterlimit:10;}
	.st4{fill:none;stroke:#202020;stroke-width:4.1161;stroke-linecap:round;stroke-linejoin:round;stroke-miterlimit:10;}
	.st5{fill:none;stroke:#202020;stroke-width:4;stroke-linecap:round;stroke-linejoin:round;stroke-miterlimit:10;}
	.st6{fill:#ACAFB5;}
	.st7{fill:none;stroke:#202020;stroke-width:1.904;stroke-linejoin:round;stroke-miterlimit:10;}
	.st8{fill:none;stroke:#111111;stroke-width:1.904;stroke-linecap:round;stroke-linejoin:round;stroke-miterlimit:10;}
	.st9{fill:none;stroke:#202020;stroke-width:1.904;stroke-linecap:round;stroke-linejoin:round;stroke-miterlimit:10;}
	.st10{stroke:#F9F9F9;stroke-width:0.1179;stroke-miterlimit:10;}
</style>
<path class="st0" d="M33.6,13.9l-3.9-3.1V3.4c0-0.5-0.4-1-1-1h-4.8c-0.5,0-1,0.4-1,1v2l-5.4-4.3c-0.3-0.3-0.8-0.3-1.2,0l-16,12.8
	l1.2,1.5l2.7-2.2v19c0,0.5,0.4,1,1,1h23.5c0.5,0,1-0.4,1-1v-19l2.7,2.2L33.6,13.9z M24.9,4.4h2.9v4.9l-2.9-2.3V4.4z M20.8,31.2h-7.7
	v-9.8h7.7V31.2z M27.8,31.2h-5V20.5c0-0.5-0.4-1-1-1h-9.6c-0.5,0-1,0.4-1,1v10.8h-5V11.6L17,3l10.8,8.6V31.2z"/>
</svg>
