<svg xmlns="http://www.w3.org/2000/svg" width="18" height="20" viewBox="0 0 18 20">
  <defs>
    <style>
      .cls-1 {
        fill: #c6c6c6;
        fill-rule: evenodd;
      }
    </style>
  </defs>
  <path id="Forma_1" data-name="Forma 1" class="cls-1" d="M1060.68,345.333h-2.25v-1a0.331,0.331,0,0,0-.32-0.333h-2.25a0.325,0.325,0,0,0-.32.333v1h-7.08v-1a0.325,0.325,0,0,0-.32-0.333h-2.25a0.331,0.331,0,0,0-.32.333v1h-2.25a0.325,0.325,0,0,0-.32.334v18a0.325,0.325,0,0,0,.32.333h17.36a0.325,0.325,0,0,0,.32-0.333v-18A0.325,0.325,0,0,0,1060.68,345.333Zm-4.5-.666h1.61v2h-1.61v-2Zm-9.97,0h1.61v2h-1.61v-2ZM1043.64,346h1.93v1a0.331,0.331,0,0,0,.32.333h2.25a0.325,0.325,0,0,0,.32-0.333v-1h7.08v1a0.325,0.325,0,0,0,.32.333h2.25a0.331,0.331,0,0,0,.32-0.333v-1h1.93v3h-16.72v-3Zm0,17.333V349.667h16.72v13.666h-16.72Zm10.93-11.666h-8.68v9.666h12.22v-9.666h-3.54Zm-2.25.666h2.25v2.334h-2.25v-2.334Zm2.25,5.334h-2.25v-2.334h2.25v2.334Zm-5.14-2.334h2.25v2.334h-2.25v-2.334Zm0-3h2.25v2.334h-2.25v-2.334Zm-2.89,0h2.25v2.334h-2.25v-2.334Zm0,3h2.25v2.334h-2.25v-2.334Zm2.25,5.334h-2.25v-2.334h2.25v2.334Zm2.89,0h-2.25v-2.334h2.25v2.334Zm2.89,0h-2.25v-2.334h2.25v2.334Zm2.89,0h-2.25v-2.334h2.25v2.334Zm0-3h-2.25v-2.334h2.25v2.334Zm0-5.334v2.334h-2.25v-2.334h2.25Z" transform="translate(-1043 -344)"/>
</svg>
