<?xml version="1.0" encoding="utf-8"?>
<!-- Generator: Adobe Illustrator 22.1.0, SVG Export Plug-In . SVG Version: 6.00 Build 0)  -->
<svg version="1.1" id="Layer_1" xmlns="http://www.w3.org/2000/svg" xmlns:xlink="http://www.w3.org/1999/xlink" x="0px" y="0px"
	 viewBox="0 0 34 34" style="enable-background:new 0 0 34 34;" xml:space="preserve">
<style type="text/css">
	.st0{fill:#202020;}
	.st1{fill:#111111;}
	.st2{fill:none;stroke:#202020;stroke-width:4;stroke-linejoin:round;stroke-miterlimit:10;}
	.st3{fill:none;stroke:#202020;stroke-width:4.2667;stroke-linecap:round;stroke-linejoin:round;stroke-miterlimit:10;}
	.st4{fill:none;stroke:#202020;stroke-width:4.1161;stroke-linecap:round;stroke-linejoin:round;stroke-miterlimit:10;}
	.st5{fill:none;stroke:#202020;stroke-width:4;stroke-linecap:round;stroke-linejoin:round;stroke-miterlimit:10;}
	.st6{fill:#ACAFB5;}
	.st7{fill:none;stroke:#202020;stroke-width:1.904;stroke-linejoin:round;stroke-miterlimit:10;}
	.st8{fill:none;stroke:#111111;stroke-width:1.904;stroke-linecap:round;stroke-linejoin:round;stroke-miterlimit:10;}
	.st9{fill:none;stroke:#202020;stroke-width:1.904;stroke-linecap:round;stroke-linejoin:round;stroke-miterlimit:10;}
	.st10{stroke:#F9F9F9;stroke-width:0.1179;stroke-miterlimit:10;}
</style>
<g>
	<g id="down_arrow">
		<path d="M16.1,21.4l-8.1-7.1c-0.5-0.4-0.5-1-0.2-1.5c0-0.1,0.1-0.1,0.2-0.2c0.5-0.5,1.3-0.5,1.9,0l7.2,6.3l7.2-6.3
			c0.5-0.5,1.3-0.5,1.9,0c0.5,0.4,0.5,1,0.2,1.5c0,0.1-0.1,0.1-0.2,0.2l-8.1,7.1c-0.3,0.2-0.6,0.3-0.9,0.3
			C16.7,21.7,16.3,21.6,16.1,21.4z"/>
	</g>
</g>
</svg>
