<?xml version="1.0" encoding="utf-8"?>
<!-- Generator: Adobe Illustrator 22.1.0, SVG Export Plug-In . SVG Version: 6.00 Build 0)  -->
<svg version="1.1" id="Layer_1" xmlns="http://www.w3.org/2000/svg" xmlns:xlink="http://www.w3.org/1999/xlink" x="0px" y="0px"
	 viewBox="0 0 18 12" style="enable-background:new 0 0 18 12;" xml:space="preserve">
<style type="text/css">
	.st0{fill:#D0D0D0;}
</style>
<path class="st0" d="M17.6,0H0.4C0.2,0,0,0.2,0,0.4v11.2C0,11.8,0.2,12,0.4,12h17.2c0.2,0,0.4-0.2,0.4-0.4V0.4C18,0.2,17.8,0,17.6,0
	z M16.4,0.8L9,7.5L1.6,0.8H16.4z M0.8,1.1l5.1,4.6l-5.1,4.7V1.1z M1,11.2l5.5-5l2.3,2.1c0.2,0.1,0.4,0.1,0.6,0l2.3-2.1l5.5,5H1z
	 M17.2,10.3l-5.1-4.7L17.2,1V10.3L17.2,10.3z"/>
</svg>
