<?xml version="1.0" encoding="utf-8"?>
<!-- Generator: Adobe Illustrator 22.1.0, SVG Export Plug-In . SVG Version: 6.00 Build 0)  -->
<svg version="1.1" id="Layer_1" xmlns="http://www.w3.org/2000/svg" xmlns:xlink="http://www.w3.org/1999/xlink" x="0px" y="0px"
	 viewBox="0 0 34 34" style="enable-background:new 0 0 34 34;" xml:space="preserve">
<style type="text/css">
	.st0{fill:#202020;}
	.st1{fill:#111111;}
	.st2{fill:none;stroke:#202020;stroke-width:4;stroke-linejoin:round;stroke-miterlimit:10;}
	.st3{fill:none;stroke:#202020;stroke-width:4.2667;stroke-linecap:round;stroke-linejoin:round;stroke-miterlimit:10;}
	.st4{fill:none;stroke:#202020;stroke-width:4.1161;stroke-linecap:round;stroke-linejoin:round;stroke-miterlimit:10;}
	.st5{fill:none;stroke:#202020;stroke-width:4;stroke-linecap:round;stroke-linejoin:round;stroke-miterlimit:10;}
	.st6{fill:#ACAFB5;}
	.st7{fill:none;stroke:#202020;stroke-width:1.904;stroke-linejoin:round;stroke-miterlimit:10;}
	.st8{fill:none;stroke:#111111;stroke-width:1.904;stroke-linecap:round;stroke-linejoin:round;stroke-miterlimit:10;}
	.st9{fill:none;stroke:#202020;stroke-width:1.904;stroke-linecap:round;stroke-linejoin:round;stroke-miterlimit:10;}
	.st10{stroke:#F9F9F9;stroke-width:0.1179;stroke-miterlimit:10;}
</style>
<path class="st0" d="M25.1,15.9c3.3,0,5.9-3.8,5.9-7c0-1.6-0.6-3-1.7-3.9c-0.9-0.7-2-1.1-3.3-1.1v-2C26,1.4,25.5,1,25.1,1H8.9
	C8.4,1,8,1.4,8,1.9v2C6.8,3.9,5.6,4.2,4.7,5C3.6,5.9,3,7.3,3,8.9c0,3.2,2.6,7,5.9,7c1.3,2.7,4,4.7,7.2,5v4.1c0,1.4-2.5,3.1-4.1,3.1
	h-1.5c-1.3,0-2.4,1.1-2.4,2.4v1.5C8,32.6,8.4,33,8.9,33h16.1c0.5,0,0.9-0.4,0.9-0.9v-1.5c0-1.3-1.1-2.4-2.4-2.4H22
	c-1.6,0-4.1-1.7-4.1-3.1v-4.1C21.1,20.6,23.7,18.6,25.1,15.9z M28.1,6.3c0.7,0.6,1.1,1.5,1.1,2.6c0,2.1-1.5,4.6-3.5,5.1
	c0.1-0.6,0.2-1.3,0.2-2V5.7C26.8,5.6,27.6,5.9,28.1,6.3z M4.8,8.9c0-1.1,0.4-2,1.1-2.6C6.4,5.9,7.2,5.6,8,5.7V12
	c0,0.7,0.1,1.3,0.2,2C6.3,13.5,4.8,11,4.8,8.9z M9.8,12V2.8h14.3V12c0,3.9-3.1,7-7,7.1c-0.1,0-0.1,0-0.2,0c-0.1,0-0.1,0-0.2,0
	C12.9,19.1,9.8,15.9,9.8,12z M22,30h1.5c0.3,0,0.6,0.3,0.6,0.6v0.6H9.8v-0.6c0-0.3,0.3-0.6,0.6-0.6H12c1.6,0,3.8-1.1,5-2.6
	C18.2,28.9,20.5,30,22,30z"/>
</svg>
