<?xml version="1.0" encoding="utf-8"?>
<!-- Generator: Adobe Illustrator 22.1.0, SVG Export Plug-In . SVG Version: 6.00 Build 0)  -->
<svg version="1.1" id="Layer_1" xmlns="http://www.w3.org/2000/svg" xmlns:xlink="http://www.w3.org/1999/xlink" x="0px" y="0px"
	 viewBox="0 0 34 34" style="enable-background:new 0 0 34 34;" xml:space="preserve">
<style type="text/css">
	.st0{fill:#202020;}
	.st1{fill:#111111;}
	.st2{fill:none;stroke:#202020;stroke-width:4;stroke-linejoin:round;stroke-miterlimit:10;}
	.st3{fill:none;stroke:#202020;stroke-width:4.2667;stroke-linecap:round;stroke-linejoin:round;stroke-miterlimit:10;}
	.st4{fill:none;stroke:#202020;stroke-width:4.1161;stroke-linecap:round;stroke-linejoin:round;stroke-miterlimit:10;}
	.st5{fill:none;stroke:#202020;stroke-width:4;stroke-linecap:round;stroke-linejoin:round;stroke-miterlimit:10;}
	.st6{fill:#ACAFB5;}
	.st7{fill:none;stroke:#202020;stroke-width:1.904;stroke-linejoin:round;stroke-miterlimit:10;}
	.st8{fill:none;stroke:#111111;stroke-width:1.904;stroke-linecap:round;stroke-linejoin:round;stroke-miterlimit:10;}
	.st9{fill:none;stroke:#202020;stroke-width:1.904;stroke-linecap:round;stroke-linejoin:round;stroke-miterlimit:10;}
	.st10{stroke:#F9F9F9;stroke-width:0.1179;stroke-miterlimit:10;}
</style>
<title>Real Estate</title>
<desc>A line styled icon from Orion Icon Library.</desc>
<path class="st0" d="M-261.4-42.8l-3.9-3.1v-7.3c0-0.5-0.4-1-1-1h-4.8c-0.5,0-1,0.4-1,1v2l-5.4-4.3c-0.3-0.3-0.8-0.3-1.2,0l-16,12.8
	l1.2,1.5l2.7-2.2v19c0,0.5,0.4,1,1,1h23.5c0.5,0,1-0.4,1-1v-19l2.7,2.2L-261.4-42.8z M-270.1-52.3h2.9v4.9l-2.9-2.3V-52.3z
	 M-274.1-25.4h-7.7v-9.8h7.7V-25.4z M-267.2-25.4h-5v-10.8c0-0.5-0.4-1-1-1h-9.6c-0.5,0-1,0.4-1,1v10.8h-5V-45l10.8-8.6l10.8,8.6
	V-25.4z"/>
<path class="st1" d="M-187,7.2C-187,7.2-187,7.2-187,7.2c0-0.1,0-0.2-0.1-0.3c0,0,0-0.1,0-0.1c0,0,0-0.1-0.1-0.1
	c0-0.1-0.1-0.1-0.1-0.2c0,0,0,0,0,0c0,0-0.1,0-0.1-0.1c-0.1,0-0.1-0.1-0.2-0.1c-0.1,0-0.1,0-0.2,0c0,0-0.1,0-0.1,0h-30.2
	c0,0-0.1,0-0.1,0c-0.1,0-0.1,0-0.2,0c-0.1,0-0.1,0.1-0.2,0.1c0,0-0.1,0-0.1,0.1c0,0,0,0,0,0c-0.1,0.1-0.1,0.1-0.1,0.2
	c0,0-0.1,0.1-0.1,0.1c0,0,0,0.1,0,0.1c0,0.1-0.1,0.2-0.1,0.3c0,0,0,0,0,0V29c0,0,0,0,0,0c0,0.1,0,0.1,0,0.2c0,0,0,0.1,0,0.1
	c0,0,0.1,0.1,0.1,0.1c0,0.1,0.1,0.1,0.1,0.2c0,0,0,0,0,0c0,0,0.1,0.1,0.1,0.1c0,0,0.1,0.1,0.1,0.1c0.1,0,0.2,0.1,0.3,0.1h30.2
	c0,0,0.1,0,0.1,0c0.1,0,0.1,0,0.2,0c0.1,0,0.1-0.1,0.2-0.1c0,0,0.1,0,0.1-0.1c0,0,0,0,0,0c0.1,0,0.1-0.1,0.1-0.2
	c0,0,0.1-0.1,0.1-0.1c0,0,0-0.1,0-0.2c0-0.1,0-0.1,0-0.2c0,0,0,0,0,0V7.2z M-209.2,17.9l-8,8.8V9.5L-209.2,17.9z M-216,8.1h26
	l-13,13.6L-216,8.1z M-207.9,19.2l4.3,4.5c0.3,0.4,1,0.4,1.3,0l4.3-4.5l8.1,9h-26.2L-207.9,19.2z M-196.8,17.9l8-8.4v17.2
	L-196.8,17.9z"/>
<path class="st0" d="M-206.9-40.8c3.3,0,5.9-3.8,5.9-7c0-1.6-0.6-3-1.7-3.9c-0.9-0.7-2-1.1-3.3-1.1v-2c0-0.5-0.4-0.9-0.9-0.9H-223
	c-0.5,0-0.9,0.4-0.9,0.9v2c-1.3,0-2.4,0.3-3.3,1.1c-1.1,0.9-1.7,2.3-1.7,3.9c0,3.2,2.6,7,5.9,7c1.3,2.7,4,4.7,7.2,5v4.1
	c0,1.4-2.5,3.1-4.1,3.1h-1.5c-1.3,0-2.4,1.1-2.4,2.4v1.5c0,0.5,0.4,0.9,0.9,0.9h16.1c0.5,0,0.9-0.4,0.9-0.9v-1.5
	c0-1.3-1.1-2.4-2.4-2.4h-1.5c-1.6,0-4.1-1.7-4.1-3.1v-4.1C-210.9-36.1-208.2-38-206.9-40.8z M-203.8-50.3c0.7,0.6,1.1,1.5,1.1,2.6
	c0,2.1-1.5,4.6-3.5,5.1c0.1-0.6,0.2-1.3,0.2-2V-51C-205.1-51-204.4-50.8-203.8-50.3z M-227.1-47.8c0-1.1,0.4-2,1.1-2.6
	c0.6-0.5,1.3-0.7,2.2-0.7v6.3c0,0.7,0.1,1.3,0.2,2C-225.6-43.2-227.1-45.7-227.1-47.8z M-222.1-44.7v-9.2h14.3v9.2
	c0,3.9-3.1,7-7,7.1c-0.1,0-0.1,0-0.2,0c-0.1,0-0.1,0-0.2,0C-219-37.6-222.1-40.8-222.1-44.7z M-209.9-26.7h1.5
	c0.3,0,0.6,0.3,0.6,0.6v0.6h-14.3v-0.6c0-0.3,0.3-0.6,0.6-0.6h1.5c1.6,0,3.8-1.1,5-2.6C-213.7-27.8-211.5-26.7-209.9-26.7z"/>
<path d="M-154.6-25.7h22.2c1.3,0,1.8-0.3,2.3-1.5l0-0.7l-0.1-0.2c0,0,0-0.1,0-0.1c-0.1-0.4-0.2-0.8-0.4-1.2l-0.1-0.4
	c-0.3-1.1-0.6-2.2-1-3.2c-0.9-2.3-2.5-3.9-4.9-4.6c-1-0.3-1.8-0.1-2.4,0.6c-0.4,0.5-1.1,0.9-1.9,1.1c-1.3,0.3-2.5,0.3-3.8,0.2
	c-1.3-0.1-2.4-0.6-3.2-1.6c-0.4-0.5-1-0.6-1.7-0.4c-1.9,0.5-3.5,1.5-4.6,3.1c0,0.1-0.1,0.1-0.2,0.1c-1,0-2,0-3,0l-0.4,0l0.2-0.8
	c0.2-0.7,0.4-1.4,0.6-2.1c0.4-1.2,1.2-2,2.3-2.5c0.3-0.1,0.7-0.2,1-0.3c0.2-0.1,0.5-0.2,0.7-0.2c0.4-0.2,0.7-0.1,1,0.1
	c0.2,0.2,0.5,0.2,0.7,0.2c0.2,0,0.4-0.2,0.5-0.4c0.2-0.4,0.1-0.8-0.4-1.1c-0.4-0.3-0.8-0.6-1.1-1c-0.7-1-1.1-2.2-1.1-3.6
	c0-1.4,0.9-2.6,2.3-3.1c0.5-0.2,1-0.2,1.6-0.1l0.1,0l0,0.1c-0.5,1.4-0.5,2.9-0.2,4.8c0.5,2.4,1.5,4.3,3,5.7c2.1,1.9,4.8,2,7,0.2
	c0.5-0.4,0.9-0.9,1.3-1.4c1.4-1.9,2.2-4.1,2.3-6.7c0.1-3.2-2.1-6.1-5.2-6.9c-0.2-0.1-0.4-0.1-0.6-0.1l-0.3-0.1l-1.5,0
	c-0.1,0-0.3,0.1-0.4,0.1c-0.3,0.1-0.7,0.1-1,0.3c-1.4,0.5-2.3,1.1-3.5,2.6l0,0l0,0c-2.2-0.6-4,0.1-5.3,1.8l0,0l0,0
	c-0.8-0.4-1.6-0.4-2.5-0.2c-1.5,0.5-2.4,2-2.2,3.7c0.1,0.3,0.1,0.7,0.2,1c0.1,0.2,0.2,0.4,0.3,0.6l0,0.1l-0.2,0.1
	c-0.1,0-0.2,0.1-0.3,0.1c-1.4,0.4-2.3,1.4-2.6,2.8c0,0.2-0.1,0.3-0.1,0.5l-0.2,0.9c-0.2,0.6,0,1,0.1,1.2c0.2,0.2,0.5,0.5,1.2,0.5
	l1.8,0l-0.7,2.5c0,0.2-0.1,0.3-0.1,0.4c-0.1,0.5,0,0.9,0.3,1.3c0.3,0.4,0.7,0.6,1.2,0.6c0.7,0,1.4,0,2.1,0l0.7,0l0,0.1l-1.3,4.5
	c-0.2,0.7-0.1,1.3,0.3,1.8C-155.9-25.9-155.3-25.7-154.6-25.7z M-148.3-47.7c0.3-2.4,2.4-4.2,4.8-4.4c0.1,0,0.2,0,0.4,0
	c2.4,0,4.3,1.7,4.9,3.4l0,0.1l-0.1,0c-0.7,0.1-1.4-0.2-2-0.8v0c-0.1-0.1-0.1-0.1-0.2-0.2l0,0c-0.1-0.1-0.1-0.1-0.2-0.2
	c-0.2-0.2-0.5-0.3-0.7-0.2c-0.2,0-0.4,0.2-0.5,0.4c-0.6,1.1-1.5,1.8-3.2,2c-0.4,0.1-0.9,0.1-1.3,0.1
	C-147-47.4-147.6-47.5-148.3-47.7L-148.3-47.7L-148.3-47.7z M-148.4-46c3.3,0.5,6-0.2,7.3-1.8l0,0l0,0c0.1,0.1,0.2,0.1,0.3,0.2l0,0
	c0.4,0.2,0.7,0.4,1.2,0.5c0.4,0.1,0.8,0.1,1.2,0.2l0.1,0c0.1,0,0.2,0,0.3,0l0.1,0v0.1c0,0,0,0.1,0,0.1l0,0c0,0.3,0,0.5,0,0.8
	c-0.2,2.2-0.9,4.1-2.2,5.5c-0.7,0.8-1.4,1.3-2.2,1.5c-0.3,0.1-0.6,0.1-0.9,0.1c-0.8,0-1.7-0.3-2.4-1c-1.2-1.1-2-2.5-2.5-4.4
	c-0.1-0.4-0.2-0.9-0.2-1.4l0,0C-148.4-45.7-148.4-45.8-148.4-46L-148.4-46L-148.4-46z M-158-39.1c-0.5,0-1,0-1.5,0h-0.4l-0.4,0
	l0-0.2c0-0.1,0-0.1,0.1-0.2c0.1-0.5,0.3-0.9,0.4-1.3c0.1-0.4,0.4-0.7,0.8-0.9c0.5-0.2,1-0.4,1.6-0.6l0,0l0,0c0,0,0.1,0,0.2,0.1l0,0
	c0.1,0,0.1,0.1,0.2,0.1c0.4,0.2,0.8,0.1,1.1-0.3c0.2-0.3,0.1-0.8-0.2-1.1c0,0-0.1,0-0.1-0.1c-0.8-0.6-1.4-2-1.2-2.9
	c0.1-0.5,0.4-0.9,0.8-1.1c0.4-0.2,0.9-0.2,1.4-0.1c0.1,0,0.1,0,0.2,0.1l0,0l0,0c-0.4,1.9,0,3.7,1.1,5.6l0,0.1l-0.3,0.1
	c-0.3,0.1-0.6,0.2-0.9,0.3c-1.3,0.4-2.2,1.1-2.9,2.1C-157.9-39.2-158-39.2-158-39.1L-158-39.1z M-155-27.9l0.4-1.3
	c0.3-0.9,0.5-1.8,0.8-2.7c0.7-2.2,2.1-3.6,4.4-4.2c0.2,0,0.3,0,0.4,0.1c1.1,1.2,2.5,1.8,4.3,1.9c1.3,0.1,2.7,0.1,4.1-0.2
	c1.1-0.3,2.1-0.8,2.9-1.7c0.2-0.2,0.3-0.2,0.6-0.1c2.2,0.6,3.6,2,4.3,4.1c0.4,1.2,0.8,2.6,1.2,4.1c0.1,0.3,0.1,0.4,0,0.5l0,0
	c0,0.1-0.2,0.1-0.5,0.1h-22.4c-0.4,0-0.5-0.1-0.5-0.1C-155-27.4-155.1-27.5-155-27.9z"/>
<g>
	<path class="st0" d="M-77.1-45c-3.3,0-5.9,2.7-5.9,5.9s2.7,5.9,5.9,5.9s5.9-2.7,5.9-5.9S-73.9-45-77.1-45z M-77.1-34.9
		c-2.3,0-4.1-1.9-4.1-4.1s1.9-4.1,4.1-4.1c2.3,0,4.1,1.9,4.1,4.1S-74.9-34.9-77.1-34.9z"/>
	<path class="st0" d="M-62.6-42.5h-2.6c-0.3-0.9-0.6-1.8-1.1-2.7l1.8-1.8c0.5-0.5,0.5-1.4,0-2l-2.8-2.8c-0.5-0.5-1.4-0.5-2,0
		l-1.8,1.8c-0.8-0.5-1.7-0.8-2.7-1.1v-2.6c0-0.8-0.6-1.4-1.4-1.4h-4c-0.8,0-1.4,0.6-1.4,1.4v2.6c-0.9,0.3-1.8,0.6-2.7,1.1l-1.8-1.8
		c-0.5-0.5-1.4-0.5-2,0l-2.8,2.8c-0.5,0.5-0.5,1.4,0,2l1.8,1.8c-0.5,0.8-0.8,1.7-1.1,2.7h-2.6c-0.8,0-1.4,0.6-1.4,1.4v4
		c0,0.8,0.6,1.4,1.4,1.4h2.6c0.3,0.9,0.6,1.8,1.1,2.7l-1.8,1.8c-0.5,0.5-0.5,1.4,0,2l2.8,2.8c0.5,0.5,1.4,0.5,2,0l1.8-1.8
		c0.8,0.5,1.7,0.8,2.7,1.1v2.6c0,0.8,0.6,1.4,1.4,1.4h4c0.8,0,1.4-0.6,1.4-1.4v-2.6c0.9-0.3,1.8-0.6,2.7-1.1l1.8,1.8
		c0.5,0.5,1.5,0.5,2,0l2.8-2.8c0.5-0.5,0.5-1.4,0-2l-1.8-1.8c0.5-0.8,0.8-1.7,1.1-2.7h2.6c0.8,0,1.4-0.6,1.4-1.4v-4
		C-61.1-41.9-61.8-42.5-62.6-42.5z M-62.9-37.4h-2.9c-0.4,0-0.8,0.3-0.9,0.7c-0.3,1.2-0.7,2.4-1.4,3.4c-0.2,0.4-0.2,0.8,0.1,1.1
		l2.1,2.1l-2.3,2.3l-2.1-2.1c-0.3-0.3-0.8-0.3-1.1-0.1c-1,0.7-2.2,1.1-3.4,1.4c-0.4,0.1-0.7,0.5-0.7,0.9v2.9h-3.2v-2.9
		c0-0.4-0.3-0.8-0.7-0.9c-1.2-0.3-2.4-0.7-3.4-1.4c-0.4-0.2-0.8-0.2-1.1,0.1l-2.1,2.1l-2.3-2.3l2.1-2.1c0.3-0.3,0.3-0.8,0.1-1.1
		c-0.7-1-1.1-2.2-1.4-3.4c-0.1-0.4-0.5-0.7-0.9-0.7h-2.9v-3.2h2.9c0.4,0,0.8-0.3,0.9-0.7c0.3-1.2,0.7-2.4,1.4-3.4
		c0.2-0.4,0.2-0.8-0.1-1.1l-2.1-2.1l2.3-2.3l2.1,2.1c0.3,0.3,0.8,0.3,1.1,0.1c1-0.7,2.2-1.1,3.4-1.4c0.4-0.1,0.7-0.5,0.7-0.9v-2.9
		h3.2v2.9c0,0.4,0.3,0.8,0.7,0.9c1.2,0.3,2.4,0.7,3.4,1.4c0.4,0.2,0.8,0.2,1.1-0.1l2.1-2.1L-66-48l-2.1,2.1
		c-0.3,0.3-0.3,0.8-0.1,1.1c0.7,1,1.1,2.2,1.4,3.4c0.1,0.4,0.5,0.7,0.9,0.7h2.9V-37.4z"/>
</g>
<path d="M-260.8,27.4c-3.5-1.5-3.6-8.3-3.6-8.5v-4.5c0-4.2-2.5-8.1-6.5-9.7c-0.1-2.2-1.9-4-4.1-4c-2.2,0-4,1.8-4,4
	c-3.9,1.6-6.5,5.5-6.5,9.7v4.5c0,0.2-0.1,6.9-3.6,8.5c-0.5,0.2-0.7,0.8-0.5,1.3c0.2,0.3,0.5,0.6,0.9,0.6h8.8c0.2,1,0.7,1.9,1.3,2.7
	c1.8,1.9,4.9,2,6.8,0.2c0.1-0.1,0.2-0.2,0.2-0.2c0.7-0.8,1.2-1.6,1.3-2.7h8.8c0.5,0,1-0.4,0.9-1C-260.3,27.8-260.5,27.6-260.8,27.4z
	 M-274.9,2.4c1,0,1.8,0.7,2.1,1.6c-1.4-0.3-2.9-0.3-4.2,0C-276.7,3.1-275.9,2.4-274.9,2.4z M-283.6,18.9v-4.5c0-4.8,3.9-8.7,8.7-8.7
	c4.8,0,8.7,3.9,8.7,8.7v4.5c0,1.2,0.2,2.3,0.4,3.4H-284C-283.7,21.2-283.6,20.1-283.6,18.9z M-274.9,31.5c-1.4,0-2.7-1-3-2.4h6.1
	C-272.2,30.4-273.5,31.4-274.9,31.5z M-286.1,27.3c0.7-1,1.3-2,1.6-3.2h19.1c0.4,1.2,0.9,2.2,1.6,3.2H-286.1z"/>
<g>
	<g id="down_arrow_3_">
		<path d="M-32.4,21.4l-8.1-7.1c-0.5-0.4-0.5-1-0.2-1.5c0-0.1,0.1-0.1,0.2-0.2c0.5-0.5,1.3-0.5,1.9,0l7.2,6.3l7.2-6.3
			c0.5-0.5,1.3-0.5,1.9,0c0.5,0.4,0.5,1,0.2,1.5c0,0.1-0.1,0.1-0.2,0.2l-8.1,7.1c-0.3,0.2-0.6,0.3-0.9,0.3
			C-31.8,21.7-32.2,21.6-32.4,21.4z"/>
	</g>
</g>
<g>
	<path class="st2" d="M-397.9-1153.7l120-96l120,96"/>
	<path class="st2" d="M-313.9-1021.7v-88h72v88"/>
	<path class="st2" d="M-365.9-1179.3v157.6h176v-216h-36v29.8"/>
</g>
<path class="st3" d="M52.6-1116.1v42.7c0,17.1-25.6,34.1-42.7,34.1H-2.9c-7.1,0-12.8,5.7-12.8,12.8v12.8h136.5v-12.8
	c0-7.1-5.7-12.8-12.8-12.8H95.3c-17.1,0-42.7-17.1-42.7-34.1"/>
<path class="st3" d="M120.9-1183.9c0,37.7-30.6,68.3-68.3,68.3s-68.3-30.6-68.3-68.3v-85.8h136.5V-1183.9z"/>
<path class="st3" d="M-15.7-1244.5c-25.6-4.7-42.7,10.7-42.7,34.1s19.2,51.6,42.7,51.6h4.7 M120.9-1244.5
	c25.6-4.7,42.7,10.7,42.7,34.1s-19.2,51.6-42.7,51.6h-4.7"/>
<g>
	<path d="M416.8-1229.9c2,0.5,4,0.9,5.9,1.4c19.4,4.9,32.9,22.9,32.2,42.9c-0.5,15.5-4.7,29.7-14.2,42.1c-2.4,3.1-5.2,6-8.2,8.5
		c-13.3,11-29.8,10.4-42.8-1.4c-10.6-9.5-16.2-21.8-18.8-35.6c-2-10.5-2.5-21,1.7-31.5c-4.3-1.4-8.4-1.3-12.4-0.1
		c-9.2,2.7-15.4,11.1-15.4,20.7c0.1,8.6,2.2,16.6,7.3,23.6c1.9,2.6,4.6,4.7,7.2,6.7c2.3,1.8,3.2,3.5,2,5.5c-1.2,2.1-3.7,2.8-5.9,1
		c-2.5-2-4.7-1.7-7.3-0.8c-3.6,1.3-7.4,2.3-11,3.7c-7.8,3.1-13.1,8.7-15.5,16.8c-1.9,6-3.5,12.1-5.2,18.2c-0.1,0.4-0.1,0.8-0.1,1.3
		c0.5,0.1,0.9,0.3,1.4,0.3c7.2,0,14.4,0.1,21.6,0c0.8,0,1.9-0.7,2.4-1.4c7.1-10,16.6-16.4,28.6-19.3c3.7-0.9,7.1-0.4,9.6,2.4
		c5.8,6.5,13.1,9.8,21.6,10.4c8.4,0.6,16.7,0.9,25-1.1c5-1.2,9.6-3.5,13-7.4c4-4.8,8.7-5.4,14.3-3.7c14.9,4.5,25.4,14,30.8,28.5
		c3.7,10,6.4,20.4,9.6,30.7c0.1,0.4,0.4,0.8,0.5,1.2c0,1.3,0,2.5,0,3.8c-3,7.4-5.4,9-13.6,9c-47.3,0-94.7,0-142,0
		c-8.5,0-13.4-6.4-11.1-14.6c2.6-9.1,5.2-18.2,7.8-27.3c0.3-1.1,0.7-2.2,1-3.5c-6.8,0-13.4,0.1-19.9,0c-5.6-0.1-9.3-4.9-8-10.3
		c0.3-1.4,0.8-2.7,1.2-4.1c1.5-5.3,2.9-10.6,4.4-15.8c-0.4-0.1-0.5-0.2-0.7-0.2c-4.2,0-8.4,0-12.6,0c-6,0-8.7-3.5-7.2-9.2
		c0.8-3,1.6-5.9,2.4-8.9c2.3-8.5,7.5-14.2,15.9-17c1.4-0.5,2.9-1,4.3-1.4c-0.9-2.1-1.8-4-2.4-5.9c-0.6-2-1.1-4.1-1.4-6.2
		c-1.6-10.3,3.7-19.5,13-22.3c5.5-1.7,10.9-1.1,16,1.8c8.8-12.1,20.4-15.9,34.6-11.9c7.6-9.7,13.2-14.1,22.5-17.2
		c3-1,6.1-1.5,9.2-2.2C410.8-1229.9,413.8-1229.9,416.8-1229.9z M410.9-1061c23.9,0,47.7,0,71.6,0c4,0,5.2-1.5,4-5.3
		c-2.6-8.7-5.2-17.4-7.9-26c-4.4-14.2-13.9-23.1-28.2-27.1c-2-0.6-3.4-0.3-4.8,1.3c-4.8,5.3-10.7,8.7-17.7,10.4
		c-8.6,2-17.2,1.9-25.9,1.3c-10.4-0.6-19.6-4.1-26.7-12c-1.1-1.2-2.2-1.5-3.8-1.1c-14.6,3.9-24.3,12.9-28.7,27.4
		c-2.6,8.5-5,17.1-7.4,25.7c-1.2,4.1-0.1,5.5,4.2,5.5C363.3-1061,387.1-1061,410.9-1061z M376.6-1183.9c0.8,4.7,1.3,9.1,2.3,13.4
		c2.7,11.2,7.5,21.3,16.4,29c6.6,5.7,14.1,8.3,22.8,5.9c6-1.6,10.7-5.3,14.7-9.9c8.9-10.4,13.1-22.7,14.2-36.2c0.2-2.8,0-5.6,0-7.9
		c-4.1-0.4-7.9-0.3-11.5-1.3c-3.6-1-6.9-3.1-10.4-4.8C417.9-1186.1,401.7-1179.9,376.6-1183.9z M377.5-1191.5
		c7.6,1.6,15.1,2,22.7,0.8c9.1-1.5,17.2-4.7,21.6-13.7c1.1-2.2,3.9-2.2,5.7-0.5c0.8,0.8,1.4,1.7,2.2,2.5c4.4,4.2,9.7,6,15.8,4.9
		c-3.3-12.3-16.6-25.8-35.7-24.6C393.2-1221.2,379-1207.7,377.5-1191.5z M301.3-1137c5.7,0,10.8,0,15.9-0.1c0.6,0,1.5-0.6,1.8-1.1
		c4.5-6.4,10.6-10.5,17.9-13c3-1.1,6.1-2,9.2-3c-7.6-11.6-11-24-7.8-37.8c-0.8-0.4-1.6-0.7-2.4-1c-6.7-2.6-14,1.3-15.6,8.3
		c-1.5,6.6,2.2,16.1,7.8,19.9c0.3,0.2,0.5,0.3,0.8,0.5c1.6,1.3,2,3.4,1,5.1c-1.1,1.8-3.2,2.3-5.2,1.4c-1-0.5-2.2-1.6-3-1.4
		c-3.6,1-7.2,2.2-10.7,3.7c-2.8,1.2-4.8,3.4-5.9,6.2C303.7-1145.4,302.6-1141.4,301.3-1137z"/>
	<path d="M481-1051.8H339c-4.7,0-8.6-1.7-11-4.9c-2.4-3.1-3-7.3-1.7-11.8l8.2-28.7l-4.1,0c-4.6,0-9.1,0-13.7,0c-3.1,0-6-1.4-7.8-3.7
		c-1.9-2.4-2.5-5.5-1.8-8.6c0.2-0.9,0.5-1.8,0.8-2.7l4.3-15.4l-11.1,0c-4.4,0-6.7-1.7-7.7-3.1c-1.1-1.4-2.1-4-1-8.2
		c0.4-1.5,0.8-2.9,1.2-4.4c0.4-1.5,0.8-3,1.2-4.5c2.4-9.2,8.2-15.3,17-18.1c0.9-0.3,1.7-0.6,2.5-0.8l-0.1-0.3
		c-0.6-1.4-1.2-2.8-1.7-4.2c-0.6-2-1.2-4.2-1.5-6.4c-1.8-11.2,4.1-21.1,14.1-24.1c5.5-1.7,10.9-1.2,16,1.2
		c8.8-11.3,20.3-15.3,34.4-11.7c7.6-9.5,13.4-13.8,22.6-16.9c2.1-0.7,4.3-1.2,6.4-1.6c1-0.2,1.9-0.4,2.9-0.6l9.6,0l2.2,0.5
		c1.3,0.3,2.6,0.6,3.9,0.9c20.1,5.1,34.2,23.8,33.5,44.6c-0.6,17-5.3,31.1-14.5,43.1c-2.4,3.1-5.3,6.1-8.5,8.7
		c-14,11.5-31.3,11-45-1.4c-10-9.1-16.4-21-19.4-36.5c-2.4-12.2-2-21.8,1.1-30.7c-3.3-0.7-6.5-0.6-9.8,0.3
		c-8.5,2.5-14.2,10.2-14.2,19.1c0,8.8,2.4,16.4,7,22.6c1.8,2.4,4.2,4.3,6.9,6.4c3.9,3,3.5,5.8,2.4,7.7c-0.9,1.5-2.2,2.5-3.8,2.8
		c-1.6,0.3-3.2-0.2-4.6-1.3c-1.7-1.3-3.1-1.5-5.7-0.5c-1.5,0.5-3,1-4.5,1.5c-2.1,0.7-4.3,1.4-6.4,2.2c-7.4,2.9-12.3,8.2-14.6,15.7
		c-1.3,4.4-2.6,8.8-3.8,13.2l-1.2,4.4h1.2c6.6,0,13.3,0.1,19.9-0.1c0.2,0,0.8-0.3,1-0.7c7.4-10.3,17.3-17,29.6-19.9
		c4.6-1.1,8.5-0.1,11.2,3c5.3,6,12,9.2,20.5,9.8c8.3,0.5,16.4,0.9,24.5-1.1c5.3-1.3,9.3-3.6,12.1-6.9c4.2-4.9,9.3-6.2,16-4.2
		c15.6,4.7,26.4,14.7,31.8,29.5c2.6,6.9,4.7,14.1,6.7,21c1,3.2,1.9,6.5,2.9,9.7c0.1,0.2,0.2,0.4,0.3,0.6l0.4,1.1l-0.1,4.4
		C492.9-1053.9,489.8-1051.8,481-1051.8z M336.8-1100.6h2.2l-9.5,33c-1,3.4-0.6,6.6,1.2,8.9c1.7,2.3,4.7,3.6,8.3,3.6h142
		c7.4,0,9.3-1.2,11.9-7.7v-3.1c-0.2-0.5-0.4-0.8-0.5-1.1c-1-3.2-1.9-6.5-2.9-9.7c-2-6.9-4.1-14-6.7-20.8
		c-5.1-13.8-15.1-23.1-29.7-27.5c-5.5-1.7-9.2-0.7-12.5,3.2c-3.2,3.8-7.9,6.5-13.9,7.9c-8.5,2.1-16.9,1.8-25.5,1.2
		c-9.2-0.6-16.9-4.3-22.7-10.9c-1.9-2.1-4.5-2.8-8-1.9c-11.6,2.8-20.7,8.9-27.7,18.6c-0.7,1-2.2,2.1-3.7,2.1
		c-6.6,0.1-13.3,0.1-19.9,0.1h-1.6c-0.5,0-0.9-0.1-1.3-0.2l-1.4-0.3l-0.3-1.5c0-0.8,0-1.2,0.1-1.6l1.4-5c1.2-4.4,2.5-8.9,3.8-13.3
		c2.6-8.5,8.2-14.5,16.5-17.8c2.2-0.9,4.4-1.6,6.6-2.3c1.5-0.5,3-0.9,4.4-1.5c2.6-0.9,5.7-1.5,8.9,1.1c0.6,0.5,1.3,0.7,1.9,0.6
		c0.6-0.1,1.1-0.5,1.5-1.2c0.3-0.6,0.9-1.5-1.6-3.4c-2.8-2.2-5.5-4.3-7.5-7c-5-6.7-7.6-15-7.7-24.5c-0.1-10.4,6.6-19.4,16.6-22.3
		c4.5-1.3,8.9-1.3,13.4,0.1l1.7,0.5l-0.7,1.7c-3.5,8.8-4,18.2-1.6,30.5c2.9,14.8,8.9,26.1,18.3,34.6c12.4,11.2,28,11.7,40.7,1.3
		c3-2.5,5.7-5.2,8-8.2c8.8-11.5,13.3-24.9,13.9-41.2c0.6-19.2-12.4-36.6-31-41.3c-1.3-0.3-2.6-0.6-3.9-0.9l-1.9-0.4h-8.8
		c-0.6,0.2-1.6,0.4-2.6,0.6c-2.1,0.5-4.1,0.9-6.1,1.5c-8.7,2.9-14.2,7.1-21.7,16.6l-0.7,0.9l-1.1-0.3c-13.7-3.9-24.4-0.1-32.8,11.3
		l-0.9,1.2l-1.3-0.7c-4.6-2.6-9.6-3.2-14.7-1.6c-8.5,2.6-13.3,10.9-11.8,20.4c0.3,2.1,0.8,4.1,1.4,6c0.4,1.3,1,2.5,1.5,3.8l1.5,3.6
		l-2.8,1c-1,0.4-2.1,0.7-3.1,1.1c-7.8,2.5-12.7,7.7-14.8,15.8c-0.4,1.5-0.8,3-1.2,4.5c-0.4,1.5-0.8,2.9-1.2,4.4
		c-0.4,1.6-0.7,3.8,0.4,5.3c1.2,1.5,3.4,1.8,5.1,1.8l13.4,0.2l1.6,0.5l-0.1,1.7l-4.8,17.4c-0.2,0.8-0.5,1.7-0.7,2.5
		c-0.5,2.1-0.1,4.3,1.2,5.9c1.2,1.6,3.1,2.4,5.3,2.5c4.5,0.1,9,0,13.6,0L336.8-1100.6z M482.5-1059.4H339.5c-1.9,0-4.3-0.2-5.6-1.9
		c-1.2-1.7-0.8-3.9-0.3-5.7l1.9-6.7c1.8-6.4,3.6-12.7,5.6-19c4.5-14.9,14.6-24.5,29.9-28.6c2.2-0.6,4-0.1,5.5,1.6
		c6.3,7.1,14.7,10.8,25.6,11.5c8.2,0.5,16.9,0.7,25.5-1.3c6.7-1.5,12.3-4.9,16.9-9.9c1.8-2,3.8-2.5,6.5-1.8
		c14.9,4.2,24.7,13.6,29.3,28.2c2.7,8.6,5.3,17.3,7.9,26c0.5,1.6,0.9,3.8-0.3,5.5C486.5-1059.6,484.1-1059.4,482.5-1059.4z
		 M372.7-1118.2c-0.2,0-0.5,0-0.8,0.1c-14.1,3.7-23.4,12.6-27.5,26.3c-1.9,6.3-3.7,12.6-5.5,19l-1.9,6.7c-0.6,2.1-0.3,2.7-0.2,2.8
		c0.1,0.1,0.6,0.6,2.9,0.6h142.9c2,0,2.5-0.5,2.6-0.6c0.1-0.1,0.4-0.7-0.2-2.6c-2.6-8.7-5.2-17.3-7.9-26c-4.3-13.6-13.1-22.1-27-26
		c-1.5-0.4-2.2-0.2-3.1,0.8c-5,5.5-11.2,9.2-18.6,10.9c-8.9,2.1-18,1.9-26.4,1.4c-11.8-0.7-20.9-4.8-27.8-12.6
		C373.6-1118,373.2-1118.2,372.7-1118.2z M411.9-1133.1c-6.1,0-12-2.4-17.6-7.2c-8.3-7.1-13.8-16.9-16.9-29.8c-0.7-3-1.2-6-1.7-9.1
		c-0.2-1.4-0.4-2.9-0.7-4.3l-0.4-2.3l2.3,0.4c21.7,3.5,38.9-0.6,47-11.2l0.8-1.1l1.2,0.6c1.1,0.5,2.2,1.1,3.3,1.7
		c2.3,1.2,4.6,2.4,6.9,3.1c2.3,0.6,4.8,0.8,7.4,0.9c1.3,0.1,2.5,0.1,3.8,0.3l1.5,0.1v1.5c0,0.7,0,1.4,0,2.2c0,1.8,0.1,3.8-0.1,5.8
		c-1.2,15-6,27.2-14.6,37.1c-4.6,5.4-9.7,8.8-15.5,10.4C416.4-1133.4,414.1-1133.1,411.9-1133.1z M378.6-1181.9
		c0.1,0.7,0.2,1.4,0.3,2.2c0.5,3.1,0.9,6,1.6,8.8c3,12.3,8.2,21.5,15.9,28.1c6.8,5.9,13.7,7.7,21.3,5.6c5.2-1.4,9.7-4.5,13.9-9.4
		c8.1-9.4,12.6-20.9,13.8-35.2c0.2-1.8,0.1-3.7,0.1-5.5c0-0.3,0-0.5,0-0.8c-0.8-0.1-1.5-0.1-2.2-0.1c-2.8-0.2-5.5-0.3-8.1-1.1
		c-2.7-0.7-5.1-2.1-7.5-3.3c-0.7-0.3-1.3-0.7-2-1C416.9-1183.2,399.9-1179,378.6-1181.9z M309.1-1135.3c-1.2,0-2.5,0-3.8,0l-6.3,0
		l0.7-2.1c0.4-1.4,0.8-2.7,1.2-4c0.9-2.9,1.7-5.6,2.7-8.3c1.2-3.3,3.6-5.9,6.8-7.2c3.4-1.4,7.1-2.7,10.9-3.7c1.3-0.4,2.4,0.4,3.4,1
		c0.3,0.2,0.6,0.4,0.8,0.5c1.2,0.6,2.4,0.3,3-0.8c0.6-1,0.3-2.1-0.6-2.9l-0.7-0.4c-6.2-4.3-10.2-14.4-8.5-21.7
		c0.9-3.8,3.4-7,6.8-8.8c3.4-1.8,7.5-2,11.1-0.6c0.6,0.2,1.2,0.5,1.7,0.7l2,0.8l-0.3,1.4c-2.9,12.4-0.4,24.3,7.5,36.5l1.2,1.8
		l-5,1.6c-2.1,0.7-4.2,1.3-6.2,2c-7.5,2.6-13,6.7-17.1,12.4c-0.6,0.9-1.9,1.8-3.2,1.8C314.5-1135.3,311.9-1135.3,309.1-1135.3z
		 M303.5-1138.6l1.9,0c4.1,0,7.9,0,11.8-0.1c0.1,0,0.4-0.2,0.5-0.4c4.4-6.3,10.5-10.8,18.7-13.7c2.1-0.7,4.2-1.4,6.4-2.1l0.9-0.3
		c-7.3-11.9-9.6-23.7-7.1-35.9c-0.4-0.2-0.8-0.3-1.1-0.5c-2.8-1.1-5.8-0.9-8.3,0.4c-2.6,1.4-4.4,3.8-5.1,6.7
		c-1.4,5.9,2.1,14.7,7.1,18.2c0.5,0.3,0.7,0.4,0.9,0.6c2.3,1.8,2.8,4.9,1.4,7.2c-1.5,2.5-4.6,3.3-7.3,2c-0.4-0.2-0.8-0.4-1.1-0.7
		c-0.3-0.2-0.8-0.5-1-0.6c-3.4,1-6.9,2.2-10.2,3.6c-2.3,1-4.1,2.8-4.9,5.3c-0.9,2.6-1.8,5.3-2.6,8.2
		C303.9-1139.9,303.7-1139.3,303.5-1138.6z M391.4-1188.4c-4.5,0-9.2-0.5-14.3-1.5l-1.4-0.3l0.1-1.5c1.6-17,16.5-31.1,33.9-32.2
		c0.8,0,1.6-0.1,2.4-0.1c18.2,0,31.6,13,35.1,25.9l0.5,1.8l-1.8,0.3c-6.6,1.2-12.4-0.7-17.3-5.3c-0.5-0.4-0.8-0.9-1.2-1.4
		c-0.3-0.4-0.6-0.8-1-1.1c-0.6-0.6-1.4-0.9-2.1-0.7c-0.5,0.1-0.8,0.3-1,0.8c-5.1,10.5-14.9,13.3-22.8,14.6
		C397.5-1188.6,394.5-1188.4,391.4-1188.4z M379.3-1192.9c7.5,1.4,14.3,1.5,20.6,0.5c10.8-1.8,16.9-5.6,20.4-12.8
		c0.7-1.4,1.9-2.3,3.4-2.6c1.8-0.3,3.6,0.3,5,1.6c0.4,0.4,0.8,0.9,1.2,1.4c0.3,0.4,0.6,0.8,1,1.1c3.7,3.5,7.9,5,12.5,4.7
		c-4.1-11.5-16.7-22.6-33.4-21.5C394.6-1219.6,381.5-1207.6,379.3-1192.9z"/>
</g>
<g>
	<circle class="st4" cx="748" cy="-1142.1" r="41.2"/>
	<path class="st4" d="M867.4-1162.7h-27c-2.4-10.7-6.6-20.9-12.5-30.2L847-1212c1.6-1.6,1.6-4.2,0-5.8l-23.3-23.3
		c-1.6-1.6-4.2-1.6-5.8,0l-19.1,19.1c-9.3-5.9-19.5-10.1-30.2-12.5v-27c0-2.3-1.8-4.1-4.1-4.1h-32.9c-2.3,0-4.1,1.8-4.1,4.1v27
		c-10.7,2.4-20.9,6.6-30.2,12.5l-19.1-19.1c-1.6-1.6-4.2-1.6-5.8,0l-23.3,23.3c-1.6,1.6-1.6,4.2,0,5.8l19.1,19.1
		c-5.9,9.3-10.1,19.5-12.5,30.2h-27c-2.3,0-4.1,1.8-4.1,4.1v32.9c0,2.3,1.8,4.1,4.1,4.1h27c2.4,10.7,6.6,20.9,12.5,30.2l-19.1,19.1
		c-1.6,1.6-1.6,4.2,0,5.8l23.3,23.3c1.6,1.6,4.2,1.6,5.8,0l19.1-19.1c9.3,5.9,19.5,10.1,30.2,12.5v27c0,2.3,1.8,4.1,4.1,4.1h32.9
		c2.3,0,4.1-1.8,4.1-4.1v-27c10.7-2.4,20.9-6.6,30.2-12.5l19.1,19.1c1.6,1.6,4.2,1.6,5.8,0l23.3-23.3c1.6-1.6,1.6-4.2,0-5.8
		l-19.1-19.1c5.9-9.3,10.1-19.5,12.5-30.2h27c2.3,0,4.1-1.8,4.1-4.1v-32.9C871.5-1160.9,869.7-1162.7,867.4-1162.7z"/>
</g>
<g>
	<path id="Forma_1_2_" d="M1211.8-1064.1c-26.1-11.6-26.8-62.3-26.8-63.8v-34.1c0-31.9-18.8-60.9-48.6-73.2
		c-0.7-16.7-14.5-30.4-31.2-30.4c-16.7,0-30.4,13.8-30.4,30.4c-29,12.3-48.6,41.3-48.6,73.2v34.1c0,1.4-0.7,52.2-26.8,63.8
		c-3.6,1.4-5.1,5.8-3.6,9.4c1.4,2.2,3.6,4.3,6.5,4.3h66c1.4,7.2,5.1,14.5,10.1,20.3c13.8,14.5,37,15.2,51.5,1.5
		c0.7-0.7,1.4-1.5,1.4-1.5c5.1-5.8,8.7-12.3,10.1-20.3h66c3.6,0,7.2-2.9,6.5-7.2C1215.5-1060.4,1214-1062.6,1211.8-1064.1z
		 M1177-1088.7c2.9,8.7,6.5,16.7,12.3,23.9h-168.2c5.1-7.2,9.4-15.2,12.3-23.9C1033.5-1088.7,1177-1088.7,1177-1088.7z
		 M1105.3-1251.8c7.2,0,13.8,5.1,15.9,12.3c-10.9-2.2-21.7-2.2-31.9,0C1091.5-1246.8,1098-1251.8,1105.3-1251.8z M1040-1127.9v-34.1
		c0-36.2,29-65.2,65.2-65.2c36.2,0,65.2,29,65.2,65.2l0,0v34.1c0,8.7,1.4,17.4,2.9,25.4h-136.3
		C1039.3-1110.5,1040-1119.2,1040-1127.9z M1105.3-1032.9c-10.9,0-20.3-7.2-22.5-18.1h45.7
		C1125.6-1040.9,1116.1-1033.6,1105.3-1032.9z"/>
</g>
<path class="st5" d="M1334.5-1222.1l120,116l120-116 M1494.5-1143.7l80,81.6 M1334.5-1062.1l80-81.6"/>
<path class="st5" d="M1334.5-1222.1h240v160h-240V-1222.1z"/>
<g>
	<path class="st5" d="M1855.2-1117.5l67.8,67.8"/>
	<circle class="st5" cx="1807" cy="-1165.7" r="68"/>
</g>
<g>
	<path id="down_arrow_1_" class="st6" d="M2154-1108.6l-61.2-53.8c-3.4-2.8-3.9-7.8-1.1-11.2c0.3-0.4,0.7-0.8,1.1-1.1
		c4-3.4,10-3.4,14,0l54.2,47.6l54-47.6c4.1-3.4,10-3.4,14.1,0c3.4,2.8,3.9,7.8,1.1,11.2c-0.3,0.4-0.7,0.8-1.1,1.1l-61.2,53.8
		c-1.9,1.7-4.4,2.6-7,2.6C2158.4-1106,2155.9-1106.9,2154-1108.6z"/>
</g>
<path class="st0" d="M-100.8,31.5l-10.5-10.5c1.8-2.1,2.9-4.9,2.9-7.9c0-6.7-5.4-12.1-12.1-12.1s-12.1,5.4-12.1,12.1
	s5.4,12.1,12.1,12.1c3,0,5.7-1.1,7.9-2.9l10.5,10.5c0.2,0.2,0.4,0.3,0.6,0.3s0.5-0.1,0.6-0.3C-100.4,32.4-100.4,31.8-100.8,31.5z
	 M-130.7,13.1c0-5.7,4.6-10.3,10.3-10.3c5.7,0,10.3,4.6,10.3,10.3s-4.6,10.3-10.3,10.3C-126.1,23.3-130.7,18.7-130.7,13.1z"/>
<g>
	<path class="st7" d="M-293.9-189.3l16-12.8l16,12.8"/>
	<path class="st7" d="M-282.7-171.7v-11.7h9.6v11.7"/>
	<path class="st7" d="M-289.7-192.7v21h23.5v-28.8h-4.8v4"/>
</g>
<g>
	<path class="st8" d="M58.5-198.1l16,16.7l16-16.7 M79.8-186.8L90.5-175 M58.5-175l10.7-11.8"/>
	<path class="st8" d="M58.5-198.1h32v23.1h-32V-198.1z"/>
</g>
<g>
	<path class="st9" d="M-214.9-184.5v5.3c0,2.1-3.2,4.3-5.3,4.3h-1.6c-0.9,0-1.6,0.7-1.6,1.6v1.6h17.1v-1.6c0-0.9-0.7-1.6-1.6-1.6
		h-1.6c-2.1,0-5.3-2.1-5.3-4.3"/>
	<path class="st9" d="M-206.4-192.9c0,4.7-3.8,8.5-8.5,8.5s-8.5-3.8-8.5-8.5v-10.7h17.1V-192.9z"/>
	<path class="st9" d="M-223.5-200.5c-3.2-0.6-5.3,1.3-5.3,4.3c0,2.9,2.4,6.5,5.3,6.5h0.6 M-206.4-200.5c3.2-0.6,5.3,1.3,5.3,4.3
		c0,2.9-2.4,6.5-5.3,6.5h-0.6"/>
</g>
<path class="st10" d="M-130-176C-130-176.1-130.1-176.1-130-176c-0.2-0.6-0.3-1.1-0.5-1.6c-0.3-1.1-0.7-2.2-1.1-3.3
	c-0.9-2.3-2.5-3.9-5-4.6c-1.1-0.3-1.9-0.1-2.5,0.7c-0.4,0.5-1.1,0.9-1.9,1.1c-1.3,0.3-2.5,0.3-3.8,0.2c-1.3-0.1-2.4-0.6-3.2-1.5
	c-0.4-0.5-1-0.6-1.8-0.5c-1.9,0.5-3.5,1.5-4.6,3.1c0,0.1-0.1,0.1-0.2,0.1c-1,0-2.1,0-3.1,0h-0.2l0.2-0.7c0.2-0.7,0.4-1.4,0.6-2.1
	c0.4-1.2,1.1-2,2.3-2.5c0.3-0.1,0.7-0.2,1-0.3c0.2-0.1,0.5-0.2,0.7-0.2c0.4-0.1,0.6-0.1,0.9,0.1c0.2,0.2,0.5,0.2,0.7,0.2
	c0.2,0,0.5-0.2,0.6-0.4c0.2-0.3,0.2-0.7-0.4-1.2c-0.4-0.3-0.8-0.6-1.1-1c-0.7-1-1.1-2.2-1.1-3.5c0-1.4,0.9-2.6,2.2-3
	c0.5-0.2,1-0.2,1.5-0.1c-0.5,1.4-0.5,2.9-0.2,4.8c0.5,2.4,1.5,4.3,3,5.7c2.1,1.9,4.8,2,7,0.2c0.5-0.4,1-0.9,1.3-1.4
	c1.4-1.9,2.2-4.1,2.3-6.7c0.1-3.3-2.1-6.2-5.2-7c-0.2-0.1-0.4-0.1-0.6-0.1l-0.3-0.1l-1.5,0c-0.1,0-0.3,0.1-0.4,0.1
	c-0.3,0.1-0.7,0.1-1,0.3c-1.4,0.5-2.3,1.1-3.5,2.6c-2.2-0.6-4,0.1-5.4,1.8c-0.8-0.4-1.6-0.5-2.5-0.2c-1.6,0.5-2.5,2-2.2,3.8
	c0.1,0.3,0.1,0.7,0.2,1c0.1,0.2,0.2,0.4,0.3,0.7l0,0c-0.1,0-0.3,0.1-0.4,0.1c-1.4,0.4-2.3,1.4-2.7,2.8c-0.1,0.2-0.1,0.5-0.2,0.7
	c-0.1,0.2-0.1,0.5-0.2,0.7c-0.2,0.7,0,1.1,0.2,1.3c0.2,0.2,0.5,0.5,1.2,0.5l1.7,0l-0.7,2.4c0,0.1-0.1,0.3-0.1,0.4
	c-0.1,0.5,0,1,0.3,1.4c0.3,0.4,0.7,0.6,1.2,0.6c0.7,0,1.4,0,2.1,0l0.6,0l-1.3,4.5c-0.2,0.7-0.1,1.4,0.3,1.8c0.4,0.5,1,0.8,1.7,0.8
	h22.2c1.4,0,1.9-0.3,2.4-1.6l0-0.7L-130-176z M-157.1-190.1c0.1,0,0.1,0.1,0.2,0.1c0.4,0.2,0.9,0.1,1.1-0.3c0.2-0.4,0.1-0.8-0.2-1.1
	c0,0-0.1-0.1-0.1-0.1c-0.8-0.5-1.3-1.9-1.1-2.8c0.1-0.5,0.4-0.8,0.8-1c0.4-0.2,0.9-0.2,1.3-0.1c0.1,0,0.1,0,0.2,0.1
	c-0.4,1.9,0,3.8,1.1,5.6l-0.1,0c-0.3,0.1-0.7,0.2-1,0.3c-1.3,0.4-2.2,1.1-2.9,2.1c0,0-0.1,0.1-0.1,0.1c-0.6,0-1.2,0-1.8,0l-0.3,0
	c0-0.1,0.1-0.2,0.1-0.3c0.1-0.4,0.3-0.9,0.4-1.3c0.1-0.4,0.4-0.7,0.8-0.8c0.5-0.2,1.1-0.4,1.6-0.6
	C-157.2-190.1-157.2-190.1-157.1-190.1z M-131.7-175.4c0,0-0.1,0.1-0.4,0.1h-22.4c-0.4,0-0.4-0.1-0.5-0.1c0,0-0.1-0.1,0-0.4l0.3-1
	c0.3-1,0.6-2,0.9-3c0.7-2.1,2.1-3.5,4.3-4.1c0,0,0.1,0,0.1,0c0.1,0,0.1,0,0.2,0.1c1.1,1.2,2.5,1.9,4.4,2c1.3,0.1,2.7,0.1,4.1-0.2
	c1.1-0.3,2.1-0.8,2.9-1.7c0.1-0.2,0.3-0.2,0.5-0.1c2.2,0.6,3.6,1.9,4.2,4.1c0.4,1.4,0.8,2.7,1.2,4.1
	C-131.6-175.5-131.7-175.4-131.7-175.4z M-140.2-197.4c-0.1-0.1-0.1-0.1-0.2-0.2c-0.1-0.1-0.1-0.1-0.2-0.2c-0.2-0.2-0.5-0.3-0.8-0.3
	c-0.2,0-0.4,0.2-0.5,0.4c-0.5,1.1-1.5,1.7-3.2,2c-1,0.2-2.1,0.1-3.2-0.1c0.3-2.3,2.4-4.2,4.8-4.3c2.6-0.2,4.6,1.6,5.2,3.4
	C-139-196.6-139.6-196.8-140.2-197.4z M-141-195.8c0.1,0.1,0.2,0.1,0.3,0.2c0.4,0.2,0.8,0.4,1.2,0.5c0.4,0.1,0.8,0.1,1.3,0.2
	c0.1,0,0.2,0,0.3,0c0,0,0,0.1,0,0.1c0,0.3,0,0.6,0,0.9c-0.2,2.2-0.9,4-2.2,5.5c-0.7,0.8-1.4,1.2-2.2,1.5c-1.2,0.3-2.3,0-3.3-0.9
	c-1.2-1-2-2.5-2.5-4.4c-0.1-0.4-0.2-0.9-0.2-1.4c0-0.1,0-0.2-0.1-0.3C-145-193.5-142.4-194.2-141-195.8z"/>
<g>
	<circle class="st9" cx="-77.1" cy="-187.1" r="5.3"/>
	<path class="st9" d="M-61.7-189.7h-3.5c-0.3-1.4-0.9-2.7-1.6-3.9l2.5-2.5c0.2-0.2,0.2-0.5,0-0.8l-3-3c-0.2-0.2-0.5-0.2-0.8,0
		l-2.5,2.5c-1.2-0.8-2.5-1.3-3.9-1.6v-3.5c0-0.3-0.2-0.5-0.5-0.5h-4.3c-0.3,0-0.5,0.2-0.5,0.5v3.5c-1.4,0.3-2.7,0.9-3.9,1.6
		l-2.5-2.5c-0.2-0.2-0.5-0.2-0.8,0l-3,3c-0.2,0.2-0.2,0.5,0,0.8l2.5,2.5c-0.8,1.2-1.3,2.5-1.6,3.9h-3.5c-0.3,0-0.5,0.2-0.5,0.5v4.3
		c0,0.3,0.2,0.5,0.5,0.5h3.5c0.3,1.4,0.9,2.7,1.6,3.9L-90-178c-0.2,0.2-0.2,0.5,0,0.8l3,3c0.2,0.2,0.5,0.2,0.8,0l2.5-2.5
		c1.2,0.8,2.5,1.3,3.9,1.6v3.5c0,0.3,0.2,0.5,0.5,0.5h4.3c0.3,0,0.5-0.2,0.5-0.5v-3.5c1.4-0.3,2.7-0.9,3.9-1.6l2.5,2.5
		c0.2,0.2,0.5,0.2,0.8,0l3-3c0.2-0.2,0.2-0.5,0-0.8l-2.5-2.5c0.8-1.2,1.3-2.5,1.6-3.9h3.5c0.3,0,0.5-0.2,0.5-0.5v-4.3
		C-61.1-189.5-61.4-189.7-61.7-189.7z"/>
</g>
<g>
	<path id="Forma_1_3_" d="M16.7-177.3c-3.5-1.5-3.6-8.3-3.6-8.5v-4.5c0-4.2-2.5-8.1-6.5-9.7c-0.1-2.2-1.9-4-4.1-4s-4,1.8-4,4
		c-3.9,1.6-6.5,5.5-6.5,9.7v4.5c0,0.2-0.1,6.9-3.6,8.5c-0.5,0.2-0.7,0.8-0.5,1.3c0.2,0.3,0.5,0.6,0.9,0.6h8.8c0.2,1,0.7,1.9,1.3,2.7
		c1.8,1.9,4.9,2,6.8,0.2c0.1-0.1,0.2-0.2,0.2-0.2c0.7-0.8,1.2-1.6,1.3-2.7h8.8c0.5,0,1-0.4,0.9-1C17.2-176.8,17-177.1,16.7-177.3z
		 M12.1-180.6c0.4,1.2,0.9,2.2,1.6,3.2H-8.6c0.7-1,1.3-2,1.6-3.2C-7-180.6,12.1-180.6,12.1-180.6z M2.5-202.2c1,0,1.8,0.7,2.1,1.6
		c-1.4-0.3-2.9-0.3-4.2,0C0.7-201.6,1.6-202.2,2.5-202.2z M-6.1-185.8v-4.5c0-4.8,3.9-8.7,8.7-8.7s8.7,3.9,8.7,8.7l0,0v4.5
		c0,1.2,0.2,2.3,0.4,3.4H-6.5C-6.2-183.5-6.1-184.6-6.1-185.8z M2.5-173.2c-1.4,0-2.7-1-3-2.4h6.1C5.2-174.2,4-173.3,2.5-173.2z"/>
</g>
<g>
	<path id="down_arrow_2_" d="M245-183.3l-8.1-7.1c-0.5-0.4-0.5-1-0.2-1.5c0-0.1,0.1-0.1,0.2-0.2c0.5-0.5,1.3-0.5,1.9,0l7.2,6.3
		l7.2-6.3c0.5-0.5,1.3-0.5,1.9,0c0.5,0.4,0.5,1,0.2,1.5c0,0.1-0.1,0.1-0.2,0.2l-8.1,7.1c-0.3,0.2-0.6,0.3-0.9,0.3
		C245.6-182.9,245.3-183,245-183.3z"/>
</g>
<g>
	<path class="st9" d="M165.2-183.5l11.8,11.8"/>
	<circle class="st9" cx="156.8" cy="-191.8" r="11.8"/>
</g>
<g>
	<path d="M27.1,9.9H6.9c-0.2,0-0.3-0.1-0.3-0.3V8.1c0-0.2,0.1-0.3,0.3-0.3h20.3c0.2,0,0.3,0.1,0.3,0.3v1.5
		C27.5,9.8,27.3,9.9,27.1,9.9z"/>
	<path d="M27.1,18.1H6.9c-0.2,0-0.3-0.1-0.3-0.3v-1.5c0-0.2,0.1-0.3,0.3-0.3h20.3c0.2,0,0.3,0.1,0.3,0.3v1.5
		C27.5,17.9,27.3,18.1,27.1,18.1z"/>
	<path d="M27.1,26.2H6.9c-0.2,0-0.3-0.1-0.3-0.3v-1.5c0-0.2,0.1-0.3,0.3-0.3h20.3c0.2,0,0.3,0.1,0.3,0.3v1.5
		C27.5,26.1,27.3,26.2,27.1,26.2z"/>
</g>
</svg>
