<?xml version="1.0" encoding="utf-8"?>
<!-- Generator: Adobe Illustrator 22.1.0, SVG Export Plug-In . SVG Version: 6.00 Build 0)  -->
<svg version="1.1" id="Layer_1" xmlns="http://www.w3.org/2000/svg" xmlns:xlink="http://www.w3.org/1999/xlink" x="0px" y="0px"
	 viewBox="0 0 34 34" style="enable-background:new 0 0 34 34;" xml:space="preserve">
<style type="text/css">
	.st0{fill:#202020;}
	.st1{fill:#111111;}
	.st2{fill:none;stroke:#202020;stroke-width:4;stroke-linejoin:round;stroke-miterlimit:10;}
	.st3{fill:none;stroke:#202020;stroke-width:4.2667;stroke-linecap:round;stroke-linejoin:round;stroke-miterlimit:10;}
	.st4{fill:none;stroke:#202020;stroke-width:4.1161;stroke-linecap:round;stroke-linejoin:round;stroke-miterlimit:10;}
	.st5{fill:none;stroke:#202020;stroke-width:4;stroke-linecap:round;stroke-linejoin:round;stroke-miterlimit:10;}
	.st6{fill:#ACAFB5;}
	.st7{fill:none;stroke:#202020;stroke-width:1.904;stroke-linejoin:round;stroke-miterlimit:10;}
	.st8{fill:none;stroke:#111111;stroke-width:1.904;stroke-linecap:round;stroke-linejoin:round;stroke-miterlimit:10;}
	.st9{fill:none;stroke:#202020;stroke-width:1.904;stroke-linecap:round;stroke-linejoin:round;stroke-miterlimit:10;}
	.st10{stroke:#F9F9F9;stroke-width:0.1179;stroke-miterlimit:10;}
</style>
<path class="st1" d="M33,7.2C33,7.2,33,7.2,33,7.2c0-0.1,0-0.2-0.1-0.3c0,0,0-0.1,0-0.1c0,0,0-0.1-0.1-0.1c0-0.1-0.1-0.1-0.1-0.2
	c0,0,0,0,0,0c0,0-0.1,0-0.1-0.1c-0.1,0-0.1-0.1-0.2-0.1c-0.1,0-0.1,0-0.2,0c0,0-0.1,0-0.1,0H1.9c0,0-0.1,0-0.1,0c-0.1,0-0.1,0-0.2,0
	c-0.1,0-0.1,0.1-0.2,0.1c0,0-0.1,0-0.1,0.1c0,0,0,0,0,0C1.2,6.7,1.2,6.7,1.1,6.8c0,0-0.1,0.1-0.1,0.1c0,0,0,0.1,0,0.1
	C1,7.1,1,7.1,1,7.2c0,0,0,0,0,0V29c0,0,0,0,0,0c0,0.1,0,0.1,0,0.2c0,0,0,0.1,0,0.1c0,0,0.1,0.1,0.1,0.1c0,0.1,0.1,0.1,0.1,0.2
	c0,0,0,0,0,0c0,0,0.1,0.1,0.1,0.1c0,0,0.1,0.1,0.1,0.1c0.1,0,0.2,0.1,0.3,0.1h30.2c0,0,0.1,0,0.1,0c0.1,0,0.1,0,0.2,0
	c0.1,0,0.1-0.1,0.2-0.1c0,0,0.1,0,0.1-0.1c0,0,0,0,0,0c0.1,0,0.1-0.1,0.1-0.2c0,0,0.1-0.1,0.1-0.1c0,0,0-0.1,0-0.2
	c0-0.1,0-0.1,0-0.2c0,0,0,0,0,0V7.2z M10.8,17.9l-8,8.8V9.5L10.8,17.9z M4,8.1h26L17,21.7L4,8.1z M12.1,19.2l4.3,4.5
	c0.3,0.4,1,0.4,1.3,0l4.3-4.5l8.1,9H3.9L12.1,19.2z M23.2,17.9l8-8.4v17.2L23.2,17.9z"/>
</svg>
