<?xml version="1.0" encoding="utf-8"?>
<!-- Generator: Adobe Illustrator 22.1.0, SVG Export Plug-In . SVG Version: 6.00 Build 0)  -->
<svg version="1.1" id="Layer_1" xmlns="http://www.w3.org/2000/svg" xmlns:xlink="http://www.w3.org/1999/xlink" x="0px" y="0px"
	 viewBox="0 0 34 34" style="enable-background:new 0 0 34 34;" xml:space="preserve">
<style type="text/css">
	.st0{fill:#202020;}
	.st1{fill:#111111;}
	.st2{fill:none;stroke:#202020;stroke-width:4;stroke-linejoin:round;stroke-miterlimit:10;}
	.st3{fill:none;stroke:#202020;stroke-width:4.2667;stroke-linecap:round;stroke-linejoin:round;stroke-miterlimit:10;}
	.st4{fill:none;stroke:#202020;stroke-width:4.1161;stroke-linecap:round;stroke-linejoin:round;stroke-miterlimit:10;}
	.st5{fill:none;stroke:#202020;stroke-width:4;stroke-linecap:round;stroke-linejoin:round;stroke-miterlimit:10;}
	.st6{fill:#ACAFB5;}
	.st7{fill:none;stroke:#202020;stroke-width:1.904;stroke-linejoin:round;stroke-miterlimit:10;}
	.st8{fill:none;stroke:#111111;stroke-width:1.904;stroke-linecap:round;stroke-linejoin:round;stroke-miterlimit:10;}
	.st9{fill:none;stroke:#202020;stroke-width:1.904;stroke-linecap:round;stroke-linejoin:round;stroke-miterlimit:10;}
	.st10{stroke:#F9F9F9;stroke-width:0.1179;stroke-miterlimit:10;}
</style>
<path d="M31.2,27.4c-3.5-1.5-3.6-8.3-3.6-8.5v-4.5c0-4.2-2.5-8.1-6.5-9.7c-0.1-2.2-1.9-4-4.1-4c-2.2,0-4,1.8-4,4
	c-3.9,1.6-6.5,5.5-6.5,9.7v4.5c0,0.2-0.1,6.9-3.6,8.5c-0.5,0.2-0.7,0.8-0.5,1.3c0.2,0.3,0.5,0.6,0.9,0.6h8.8c0.2,1,0.7,1.9,1.3,2.7
	c1.8,1.9,4.9,2,6.8,0.2c0.1-0.1,0.2-0.2,0.2-0.2c0.7-0.8,1.2-1.6,1.3-2.7h8.8c0.5,0,1-0.4,0.9-1C31.7,27.8,31.5,27.6,31.2,27.4z
	 M17,2.4c1,0,1.8,0.7,2.1,1.6c-1.4-0.3-2.9-0.3-4.2,0C15.2,3.1,16.1,2.4,17,2.4z M8.4,18.9v-4.5c0-4.8,3.9-8.7,8.7-8.7
	c4.8,0,8.7,3.9,8.7,8.7v4.5c0,1.2,0.2,2.3,0.4,3.4H8C8.3,21.2,8.4,20.1,8.4,18.9z M17,31.5c-1.4,0-2.7-1-3-2.4h6.1
	C19.7,30.4,18.5,31.4,17,31.5z M5.9,27.3c0.7-1,1.3-2,1.6-3.2h19.1c0.4,1.2,0.9,2.2,1.6,3.2H5.9z"/>
</svg>
