<?xml version="1.0" encoding="utf-8"?>
<!-- Generator: Adobe Illustrator 22.1.0, SVG Export Plug-In . SVG Version: 6.00 Build 0)  -->
<svg version="1.1" id="Layer_1" xmlns="http://www.w3.org/2000/svg" xmlns:xlink="http://www.w3.org/1999/xlink" x="0px" y="0px"
	 viewBox="0 0 34 34" style="enable-background:new 0 0 34 34;" xml:space="preserve">
<style type="text/css">
	.st0{fill:#202020;}
	.st1{fill:#111111;}
	.st2{fill:none;stroke:#202020;stroke-width:4;stroke-linejoin:round;stroke-miterlimit:10;}
	.st3{fill:none;stroke:#202020;stroke-width:4.2667;stroke-linecap:round;stroke-linejoin:round;stroke-miterlimit:10;}
	.st4{fill:none;stroke:#202020;stroke-width:4.1161;stroke-linecap:round;stroke-linejoin:round;stroke-miterlimit:10;}
	.st5{fill:none;stroke:#202020;stroke-width:4;stroke-linecap:round;stroke-linejoin:round;stroke-miterlimit:10;}
	.st6{fill:#ACAFB5;}
	.st7{fill:none;stroke:#202020;stroke-width:1.904;stroke-linejoin:round;stroke-miterlimit:10;}
	.st8{fill:none;stroke:#111111;stroke-width:1.904;stroke-linecap:round;stroke-linejoin:round;stroke-miterlimit:10;}
	.st9{fill:none;stroke:#202020;stroke-width:1.904;stroke-linecap:round;stroke-linejoin:round;stroke-miterlimit:10;}
	.st10{stroke:#F9F9F9;stroke-width:0.1179;stroke-miterlimit:10;}
</style>
<path d="M8.4,31h22.2c1.3,0,1.8-0.3,2.3-1.5l0-0.7l-0.1-0.2c0,0,0-0.1,0-0.1c-0.1-0.4-0.2-0.8-0.4-1.2L32.4,27
	c-0.3-1.1-0.6-2.2-1-3.2c-0.9-2.3-2.5-3.9-4.9-4.6c-1-0.3-1.8-0.1-2.4,0.6c-0.4,0.5-1.1,0.9-1.9,1.1c-1.3,0.3-2.5,0.3-3.8,0.2
	c-1.3-0.1-2.4-0.6-3.2-1.6c-0.4-0.5-1-0.6-1.7-0.4c-1.9,0.5-3.5,1.5-4.6,3.1c0,0.1-0.1,0.1-0.2,0.1c-1,0-2,0-3,0l-0.4,0l0.2-0.8
	c0.2-0.7,0.4-1.4,0.6-2.1c0.4-1.2,1.2-2,2.3-2.5c0.3-0.1,0.7-0.2,1-0.3c0.2-0.1,0.5-0.2,0.7-0.2c0.4-0.2,0.7-0.1,1,0.1
	c0.2,0.2,0.5,0.2,0.7,0.2c0.2,0,0.4-0.2,0.5-0.4c0.2-0.4,0.1-0.8-0.4-1.1c-0.4-0.3-0.8-0.6-1.1-1c-0.7-1-1.1-2.2-1.1-3.6
	c0-1.4,0.9-2.6,2.3-3.1c0.5-0.2,1-0.2,1.6-0.1l0.1,0l0,0.1c-0.5,1.4-0.5,2.9-0.2,4.8c0.5,2.4,1.5,4.3,3,5.7c2.1,1.9,4.8,2,7,0.2
	c0.5-0.4,0.9-0.9,1.3-1.4c1.4-1.9,2.2-4.1,2.3-6.7c0.1-3.2-2.1-6.1-5.2-6.9c-0.2-0.1-0.4-0.1-0.6-0.1L20.6,3l-1.5,0
	c-0.1,0-0.3,0.1-0.4,0.1c-0.3,0.1-0.7,0.1-1,0.3c-1.4,0.5-2.3,1.1-3.5,2.6l0,0l0,0c-2.2-0.6-4,0.1-5.3,1.8l0,0l0,0
	C7.9,7.4,7.1,7.4,6.2,7.6c-1.5,0.5-2.4,2-2.2,3.7c0.1,0.3,0.1,0.7,0.2,1c0.1,0.2,0.2,0.4,0.3,0.6l0,0.1l-0.2,0.1
	c-0.1,0-0.2,0.1-0.3,0.1c-1.4,0.4-2.3,1.4-2.6,2.8c0,0.2-0.1,0.3-0.1,0.5l-0.2,0.9c-0.2,0.6,0,1,0.1,1.2c0.2,0.2,0.5,0.5,1.2,0.5
	l1.8,0l-0.7,2.5c0,0.2-0.1,0.3-0.1,0.4c-0.1,0.5,0,0.9,0.3,1.3c0.3,0.4,0.7,0.6,1.2,0.6c0.7,0,1.4,0,2.1,0l0.7,0l0,0.1l-1.3,4.5
	c-0.2,0.7-0.1,1.3,0.3,1.8C7.1,30.7,7.7,31,8.4,31z M14.6,9c0.3-2.4,2.4-4.2,4.8-4.4c0.1,0,0.2,0,0.4,0c2.4,0,4.3,1.7,4.9,3.4l0,0.1
	l-0.1,0c-0.7,0.1-1.4-0.2-2-0.8v0c-0.1-0.1-0.1-0.1-0.2-0.2l0,0c-0.1-0.1-0.1-0.1-0.2-0.2c-0.2-0.2-0.5-0.3-0.7-0.2
	c-0.2,0-0.4,0.2-0.5,0.4c-0.6,1.1-1.5,1.8-3.2,2c-0.4,0.1-0.9,0.1-1.3,0.1C16,9.2,15.3,9.2,14.6,9L14.6,9L14.6,9z M14.6,10.6
	c3.3,0.5,6-0.2,7.3-1.8l0,0l0,0c0.1,0.1,0.2,0.1,0.3,0.2l0,0c0.4,0.2,0.7,0.4,1.2,0.5c0.4,0.1,0.8,0.1,1.2,0.2l0.1,0
	c0.1,0,0.2,0,0.3,0l0.1,0v0.1c0,0,0,0.1,0,0.1l0,0c0,0.3,0,0.5,0,0.8c-0.2,2.2-0.9,4.1-2.2,5.5c-0.7,0.8-1.4,1.3-2.2,1.5
	c-0.3,0.1-0.6,0.1-0.9,0.1c-0.8,0-1.7-0.3-2.4-1c-1.2-1.1-2-2.5-2.5-4.4c-0.1-0.4-0.2-0.9-0.2-1.4l0,0
	C14.6,10.9,14.5,10.8,14.6,10.6L14.6,10.6L14.6,10.6z M5,17.5c-0.5,0-1,0-1.5,0H3.1l-0.4,0l0-0.2c0-0.1,0-0.1,0.1-0.2
	c0.1-0.5,0.3-0.9,0.4-1.3c0.1-0.4,0.4-0.7,0.8-0.9c0.5-0.2,1-0.4,1.6-0.6l0,0l0,0c0,0,0.1,0,0.2,0.1l0,0c0.1,0,0.1,0.1,0.2,0.1
	c0.4,0.2,0.8,0.1,1.1-0.3c0.2-0.3,0.1-0.8-0.2-1.1c0,0-0.1,0-0.1-0.1c-0.8-0.6-1.4-2-1.2-2.9c0.1-0.5,0.4-0.9,0.8-1.1
	C6.9,9,7.4,9,7.8,9.2c0.1,0,0.1,0,0.2,0.1l0,0l0,0c-0.4,1.9,0,3.7,1.1,5.6l0,0.1L8.9,15c-0.3,0.1-0.6,0.2-0.9,0.3
	c-1.3,0.4-2.2,1.1-2.9,2.1C5.1,17.5,5,17.5,5,17.5L5,17.5z M8,28.8l0.4-1.3c0.3-0.9,0.5-1.8,0.8-2.7c0.7-2.2,2.1-3.6,4.4-4.2
	c0.2,0,0.3,0,0.4,0.1c1.1,1.2,2.5,1.8,4.3,1.9c1.3,0.1,2.7,0.1,4.1-0.2c1.1-0.3,2.1-0.8,2.9-1.7c0.2-0.2,0.3-0.2,0.6-0.1
	c2.2,0.6,3.6,2,4.3,4.1c0.4,1.2,0.8,2.6,1.2,4.1c0.1,0.3,0.1,0.4,0,0.5l0,0c0,0.1-0.2,0.1-0.5,0.1H8.5c-0.4,0-0.5-0.1-0.5-0.1
	C7.9,29.3,7.9,29.1,8,28.8z"/>
</svg>
