<?xml version="1.0" encoding="utf-8"?>
<!-- Generator: Adobe Illustrator 22.1.0, SVG Export Plug-In . SVG Version: 6.00 Build 0)  -->
<svg version="1.1" id="Layer_1" xmlns="http://www.w3.org/2000/svg" xmlns:xlink="http://www.w3.org/1999/xlink" x="0px" y="0px"
	 viewBox="0 0 14 18" style="enable-background:new 0 0 14 18;" xml:space="preserve">
<style type="text/css">
	.st0{fill:#D0D0D0;}
</style>
<g>
	<path class="st0" d="M10.8,7.3V3.7C10.6,1.5,8.7-0.2,6.5,0C4.6,0.2,3,1.7,2.9,3.7v3.6H0V18h14V7.3H10.8z M3.5,3.7
		c0.2-1.8,1.8-3.2,3.7-3c1.6,0.2,2.9,1.4,3,3v3.6H3.5V3.7z M13.4,17.4H0.6v-1.3h12.7V17.4z M13.4,15.5H0.6v0V7.9h12.7V15.5z"/>
	<path class="st0" d="M7,14.2c0.7,0,1.3-0.6,1.3-1.3v-1.9c0-0.7-0.6-1.3-1.3-1.3c-0.7,0-1.3,0.6-1.3,1.3v1.9
		C5.7,13.7,6.3,14.2,7,14.2z M6.4,11.1c0-0.4,0.3-0.6,0.6-0.6c0.3,0,0.6,0.3,0.6,0.6v1.9c0,0.4-0.3,0.6-0.6,0.6
		c-0.3,0-0.6-0.3-0.6-0.6V11.1z"/>
</g>
</svg>
