<?xml version="1.0" encoding="utf-8"?>
<!-- Generator: Adobe Illustrator 22.1.0, SVG Export Plug-In . SVG Version: 6.00 Build 0)  -->
<svg version="1.1" id="Layer_1" xmlns="http://www.w3.org/2000/svg" xmlns:xlink="http://www.w3.org/1999/xlink" x="0px" y="0px"
	 viewBox="0 0 33.3 33.3" style="enable-background:new 0 0 33.3 33.3;" xml:space="preserve">
<style type="text/css">
	.st0{fill:#202020;}
	.st1{fill:#111111;}
	.st2{fill:none;stroke:#202020;stroke-width:4;stroke-linejoin:round;stroke-miterlimit:10;}
	.st3{fill:none;stroke:#202020;stroke-width:4.2667;stroke-linecap:round;stroke-linejoin:round;stroke-miterlimit:10;}
	.st4{fill:none;stroke:#202020;stroke-width:4.1161;stroke-linecap:round;stroke-linejoin:round;stroke-miterlimit:10;}
	.st5{fill:none;stroke:#202020;stroke-width:4;stroke-linecap:round;stroke-linejoin:round;stroke-miterlimit:10;}
	.st6{fill:#ACAFB5;}
	.st7{fill:none;stroke:#202020;stroke-width:1.904;stroke-linejoin:round;stroke-miterlimit:10;}
	.st8{fill:none;stroke:#111111;stroke-width:1.904;stroke-linecap:round;stroke-linejoin:round;stroke-miterlimit:10;}
	.st9{fill:none;stroke:#202020;stroke-width:1.904;stroke-linecap:round;stroke-linejoin:round;stroke-miterlimit:10;}
	.st10{stroke:#F9F9F9;stroke-width:0.1179;stroke-miterlimit:10;}
</style>
<g>
	<path class="st0" d="M16.7,10.7c-3.3,0-5.9,2.7-5.9,5.9s2.7,5.9,5.9,5.9s5.9-2.7,5.9-5.9S19.9,10.7,16.7,10.7z M16.7,20.8
		c-2.3,0-4.1-1.9-4.1-4.1s1.9-4.1,4.1-4.1s4.1,1.9,4.1,4.1S19,20.8,16.7,20.8z"/>
	<path class="st0" d="M31.3,13.3h-2.6c-0.3-0.9-0.6-1.8-1.1-2.7l1.8-1.8c0.5-0.5,0.5-1.4,0-2l-2.8-2.8c-0.5-0.5-1.4-0.5-2,0
		l-1.8,1.8c-0.8-0.5-1.7-0.8-2.7-1.1V2.1c0-0.8-0.6-1.4-1.4-1.4h-4c-0.8,0-1.4,0.6-1.4,1.4v2.6c-0.9,0.3-1.8,0.6-2.7,1.1L8.8,3.9
		c-0.5-0.5-1.4-0.5-2,0L3.9,6.8c-0.5,0.5-0.5,1.4,0,2l1.8,1.8c-0.5,0.8-0.8,1.7-1.1,2.7H2.1c-0.8,0-1.4,0.6-1.4,1.4v4
		c0,0.8,0.6,1.4,1.4,1.4h2.6c0.3,0.9,0.6,1.8,1.1,2.7l-1.8,1.8c-0.5,0.5-0.5,1.4,0,2l2.8,2.8c0.5,0.5,1.4,0.5,2,0l1.8-1.8
		c0.8,0.5,1.7,0.8,2.7,1.1v2.6c0,0.8,0.6,1.4,1.4,1.4h4c0.8,0,1.4-0.6,1.4-1.4v-2.6c0.9-0.3,1.8-0.6,2.7-1.1l1.8,1.8
		c0.5,0.5,1.5,0.5,2,0l2.8-2.8c0.5-0.5,0.5-1.4,0-2l-1.8-1.8c0.5-0.8,0.8-1.7,1.1-2.7h2.6c0.8,0,1.4-0.6,1.4-1.4v-4
		C32.7,13.9,32,13.3,31.3,13.3z M30.9,18.3H28c-0.4,0-0.8,0.3-0.9,0.7c-0.3,1.2-0.7,2.4-1.4,3.4c-0.2,0.4-0.2,0.8,0.1,1.1l2.1,2.1
		l-2.3,2.3l-2.1-2.1c-0.3-0.3-0.8-0.3-1.1-0.1c-1,0.7-2.2,1.1-3.4,1.4c-0.4,0.1-0.7,0.5-0.7,0.9v2.9h-3.2V28c0-0.4-0.3-0.8-0.7-0.9
		c-1.2-0.3-2.4-0.7-3.4-1.4c-0.4-0.2-0.8-0.2-1.1,0.1l-2.1,2.1l-2.3-2.3l2.1-2.1c0.3-0.3,0.3-0.8,0.1-1.1c-0.7-1-1.1-2.2-1.4-3.4
		c-0.1-0.4-0.5-0.7-0.9-0.7H2.5v-3.2h2.9c0.4,0,0.8-0.3,0.9-0.7C6.5,13.1,7,12,7.7,10.9c0.2-0.4,0.2-0.8-0.1-1.1L5.5,7.8l2.3-2.3
		l2.1,2.1c0.3,0.3,0.8,0.3,1.1,0.1c1-0.7,2.2-1.1,3.4-1.4c0.4-0.1,0.7-0.5,0.7-0.9V2.5h3.2v2.9c0,0.4,0.3,0.8,0.7,0.9
		c1.2,0.3,2.4,0.7,3.4,1.4c0.4,0.2,0.8,0.2,1.1-0.1l2.1-2.1l2.3,2.3l-2.1,2.1c-0.3,0.3-0.3,0.8-0.1,1.1c0.7,1,1.1,2.2,1.4,3.4
		c0.1,0.4,0.5,0.7,0.9,0.7h2.9V18.3z"/>
</g>
</svg>
