<svg xmlns="http://www.w3.org/2000/svg" width="20" height="20" viewBox="0 0 20 20">
  <defs>
    <style>
      .cls-1 {
        fill: #6b6b6b;
        fill-rule: evenodd;
      }
    </style>
  </defs>
  <path id="Sorting" class="cls-1" d="M774.68,220.327a0.866,0.866,0,0,0-1.192.086l-3.154,3.547V209.784a0.852,0.852,0,0,0-1.7,0V223.96l-3.153-3.547a0.844,0.844,0,0,0-1.278,1.1l4.644,5.186a0.791,0.791,0,0,0,1.237,0l4.686-5.186A0.856,0.856,0,0,0,774.68,220.327Zm9.121-7.822-4.6-5.186a0.8,0.8,0,0,0-1.278,0l-4.686,5.186a0.86,0.86,0,0,0,.086,1.189,0.823,0.823,0,0,0,1.192-.085l3.154-3.548V224.2a0.856,0.856,0,0,0,.852.85,0.819,0.819,0,0,0,.852-0.809V210.065l3.153,3.548A0.846,0.846,0,1,0,783.8,212.505Z" transform="translate(-764 -207)"/>
</svg>
