<?xml version="1.0" encoding="utf-8"?>
<!-- Generator: Adobe Illustrator 22.1.0, SVG Export Plug-In . SVG Version: 6.00 Build 0)  -->
<svg version="1.1" id="Layer_1" xmlns="http://www.w3.org/2000/svg" xmlns:xlink="http://www.w3.org/1999/xlink" x="0px" y="0px"
	 viewBox="0 0 34 34" style="enable-background:new 0 0 34 34;" xml:space="preserve">
<style type="text/css">
	.st0{fill:#202020;}
</style>
<g>
	<g>
		<path class="st0" d="M26,26.6h-3.8c-0.6,0-1-0.4-1-1s0.4-1,1-1H26c3.3,0,6-2.7,6-6c0-3.3-2.7-6-6-6h-0.3c-0.4,0-0.8-0.2-0.9-0.6
			c-0.9-2-2.5-3.5-4.5-4.3c-2-0.8-4.2-0.7-6.2,0.2c-2.5,1.1-4.3,3.4-4.7,6.2c0,0.3-0.2,0.5-0.4,0.7C8.8,15,8.5,15,8.2,15
			c-1.3-0.3-2.6-0.2-3.7,0.5c-1.1,0.6-2,1.7-2.3,3C1.8,19.6,2,21,2.6,22.1s1.7,2,3,2.3c0.4,0.1,0.8,0.2,1.2,0.2h4.8c0.6,0,1,0.4,1,1
			s-0.4,1-1,1H6.7c-0.6,0-1.1-0.1-1.7-0.2c-1.8-0.5-3.3-1.6-4.2-3.2s-1.1-3.5-0.6-5.2c0.5-1.8,1.6-3.3,3.2-4.2
			c1.3-0.7,2.7-1,4.2-0.9c0.8-2.9,2.8-5.4,5.6-6.7C15.8,5.1,18.5,5,21,5.9c2.3,0.9,4.2,2.5,5.4,4.7c4.2,0.2,7.6,3.7,7.6,8
			C34,23,30.4,26.6,26,26.6z"/>
	</g>
	<g>
		<path class="st0" d="M16.9,28.7c-0.6,0-1-0.4-1-1v-9.4l-2.6,2.6c-0.4,0.4-1,0.4-1.4,0s-0.4-1,0-1.4l4.3-4.3c0,0,0,0,0,0
			c0,0,0,0,0,0c0,0,0,0,0,0c0,0,0,0,0,0c0.1-0.1,0.2-0.2,0.3-0.2c0.2-0.1,0.5-0.1,0.8,0c0.1,0,0.2,0.1,0.3,0.2c0,0,0,0,0,0
			c0,0,0,0,0,0c0,0,0,0,0,0c0,0,0,0,0,0l0,0l4.3,4.3c0.4,0.4,0.4,1,0,1.4s-1,0.4-1.4,0l-2.6-2.6v9.4C17.9,28.3,17.5,28.7,16.9,28.7z
			"/>
	</g>
</g>
</svg>
